<?xml version="1.0" encoding="UTF-8"?>
<!DOCTYPE svg PUBLIC "-//W3C//DTD SVG 1.1//EN" "http://www.w3.org/Graphics/SVG/1.1/DTD/svg11.dtd">
<svg xmlns="http://www.w3.org/2000/svg" version="1.1" width="4332px" height="2341px" style="shape-rendering:geometricPrecision; text-rendering:geometricPrecision; image-rendering:optimizeQuality; fill-rule:evenodd; clip-rule:evenodd" xmlns:xlink="http://www.w3.org/1999/xlink">
<g><path style="opacity:1" fill="#fefefe" d="M -0.5,-0.5 C 291.167,-0.5 582.833,-0.5 874.5,-0.5C 898.509,48.1954 913.843,99.5288 920.5,153.5C 858.809,158.284 797.142,163.451 735.5,169C 555.251,188.177 412.085,270.677 306,416.5C 276.077,459.674 251.91,506.008 233.5,555.5C 230.202,564.234 227.369,573.234 225,582.5C 210.4,637.564 204.067,693.564 206,750.5C 213.206,831.785 238.206,907.118 281,976.5C 300.111,1007.1 320.944,1036.44 343.5,1064.5C 250.818,1121.35 174.651,1195.35 115,1286.5C 99.5648,1312.04 85.7315,1338.37 73.5,1365.5C 66.4962,1383.68 60.9962,1402.35 57,1421.5C 49.343,1453.12 44.0097,1485.12 41,1517.5C 37.1366,1578.79 45.1366,1638.45 65,1696.5C 85.3408,1754.09 113.341,1807.42 149,1856.5C 228.603,1962.79 326.103,2048.29 441.5,2113C 470.633,2127.07 499.3,2141.9 527.5,2157.5C 495.913,2221.12 452.913,2275.95 398.5,2322C 450.548,2290.33 500.215,2254.99 547.5,2216C 557.672,2206.66 567.672,2197.16 577.5,2187.5C 640.526,2224.32 698.026,2268.66 750,2320.5C 755.709,2326.54 761.043,2332.87 766,2339.5C 756.981,2322.11 748.981,2304.11 742,2285.5C 737.265,2268.3 731.931,2251.3 726,2234.5C 716.294,2214.45 703.127,2196.95 686.5,2182C 666.562,2164.22 646.229,2147.05 625.5,2130.5C 677.495,2072.91 720.329,2008.91 754,1938.5C 762.2,1918.4 769.7,1898.06 776.5,1877.5C 812.948,1775.44 819.448,1671.44 796,1565.5C 773.022,1467.16 732.689,1376.83 675,1294.5C 640.781,1245.7 601.948,1200.53 558.5,1159C 530.639,1134.63 502.973,1110.13 475.5,1085.5C 563.376,1035.78 650.376,984.617 736.5,932C 799.842,892.336 859.508,847.67 915.5,798C 958.554,758.647 994.388,713.814 1023,663.5C 1027.12,655.6 1030.95,647.6 1034.5,639.5C 1037.6,633.731 1040.43,627.731 1043,621.5C 1049.61,602.406 1055.27,583.073 1060,563.5C 1070.18,486.54 1068.18,409.873 1054,333.5C 1045.69,290.939 1035.19,248.939 1022.5,207.5C 1033.27,204.119 1043.6,199.619 1053.5,194C 1091.02,172.151 1126.02,146.818 1158.5,118C 1182.67,96.6567 1206.67,75.1567 1230.5,53.5C 1161.73,101.328 1085.4,131.995 1001.5,145.5C 972.785,85.7816 931.118,37.115 876.5,-0.5C 2028.17,-0.5 3179.83,-0.5 4331.5,-0.5C 4331.5,779.833 4331.5,1560.17 4331.5,2340.5C 2887.5,2340.5 1443.5,2340.5 -0.5,2340.5C -0.5,1560.17 -0.5,779.833 -0.5,-0.5 Z"/></g>
<g><path style="opacity:1" fill="#036eab" d="M 874.5,-0.5 C 875.167,-0.5 875.833,-0.5 876.5,-0.5C 931.118,37.115 972.785,85.7816 1001.5,145.5C 1008.52,166.23 1015.52,186.897 1022.5,207.5C 1035.19,248.939 1045.69,290.939 1054,333.5C 1068.18,409.873 1070.18,486.54 1060,563.5C 1055.27,583.073 1049.61,602.406 1043,621.5C 1040.43,627.731 1037.6,633.731 1034.5,639.5C 1036.22,632.492 1038.06,625.492 1040,618.5C 1041.33,610.496 1042.5,602.496 1043.5,594.5C 1047.62,560.816 1047.12,527.15 1042,493.5C 1033.08,443.864 1019.75,395.53 1002,348.5C 986.549,307.624 970.049,267.291 952.5,227.5C 942.938,202.374 932.271,177.707 920.5,153.5C 913.843,99.5288 898.509,48.1954 874.5,-0.5 Z"/></g>
<g><path style="opacity:1" fill="#98b876" d="M 1022.5,207.5 C 1015.52,186.897 1008.52,166.23 1001.5,145.5C 1085.4,131.995 1161.73,101.328 1230.5,53.5C 1206.67,75.1567 1182.67,96.6567 1158.5,118C 1126.02,146.818 1091.02,172.151 1053.5,194C 1043.6,199.619 1033.27,204.119 1022.5,207.5 Z"/></g>
<g><path style="opacity:1" fill="#98b875" d="M 920.5,153.5 C 932.271,177.707 942.938,202.374 952.5,227.5C 878.92,237.953 805.253,247.787 731.5,257C 647.181,264.661 567.514,287.994 492.5,327C 371.041,394.794 282.875,492.627 228,620.5C 227.503,618.19 227.337,615.857 227.5,613.5C 227.816,593.987 229.816,574.653 233.5,555.5C 251.91,506.008 276.077,459.674 306,416.5C 412.085,270.677 555.251,188.177 735.5,169C 797.142,163.451 858.809,158.284 920.5,153.5 Z"/></g>
<g><path style="opacity:1" fill="#fefefe" d="M 952.5,227.5 C 970.049,267.291 986.549,307.624 1002,348.5C 1019.75,395.53 1033.08,443.864 1042,493.5C 1047.12,527.15 1047.62,560.816 1043.5,594.5C 1009.33,643.842 968.666,687.342 921.5,725C 868.483,766.32 812.483,803.32 753.5,836C 681.673,875.083 609.34,913.416 536.5,951C 493.812,975.007 451.479,999.507 409.5,1024.5C 351.868,964.664 305.368,896.997 270,821.5C 242.725,760.735 228.225,697.068 226.5,630.5C 226.501,624.657 226.834,618.99 227.5,613.5C 227.337,615.857 227.503,618.19 228,620.5C 282.875,492.627 371.041,394.794 492.5,327C 567.514,287.994 647.181,264.661 731.5,257C 805.253,247.787 878.92,237.953 952.5,227.5 Z"/></g>
<g><path style="opacity:1" fill="#98b875" d="M 870.5,302.5 C 871.043,302.56 871.376,302.893 871.5,303.5C 836.347,369.144 793.347,429.144 742.5,483.5C 735.63,453.554 728.964,423.554 722.5,393.5C 738.615,383.603 755.282,374.437 772.5,366C 807.105,347.549 839.772,326.383 870.5,302.5 Z"/></g>
<g><path style="opacity:1" fill="#4b9122" d="M 893.5,294.5 C 894.323,297.977 894.823,301.644 895,305.5C 895.774,334.513 895.441,363.513 894,392.5C 893.401,401.594 892.235,410.594 890.5,419.5C 861.803,424.782 833.137,429.949 804.5,435C 838.767,391.201 868.434,344.368 893.5,294.5 Z"/></g>
<g><path style="opacity:1" fill="#98b875" d="M 708.5,398.5 C 711.388,398.22 712.888,399.553 713,402.5C 719.125,433.085 725.625,463.585 732.5,494C 712.293,515.161 690.459,534.327 667,551.5C 660.672,510.208 655.006,468.875 650,427.5C 669.916,418.458 689.416,408.792 708.5,398.5 Z"/></g>
<g><path style="opacity:1" fill="#98b875" d="M 635.5,433.5 C 636.5,433.5 637.5,433.5 638.5,433.5C 643.544,472.887 649.044,512.221 655,551.5C 655.667,554.167 655.667,556.833 655,559.5C 632.748,574.585 610.915,590.252 589.5,606.5C 582.274,560.25 575.607,513.917 569.5,467.5C 569.833,466.167 570.167,464.833 570.5,463.5C 592.438,453.865 614.105,443.865 635.5,433.5 Z"/></g>
<g><path style="opacity:1" fill="#4c9122" d="M 881.5,432.5 C 884.167,432.5 886.833,432.5 889.5,432.5C 887.255,455.727 883.588,478.727 878.5,501.5C 837.511,498.65 796.511,495.816 755.5,493C 768.872,478.631 781.872,463.964 794.5,449C 823.744,444.129 852.744,438.629 881.5,432.5 Z"/></g>
<g><path style="opacity:1" fill="#98b875" d="M 556.5,469.5 C 557.117,469.611 557.617,469.944 558,470.5C 564.341,518.56 571.174,566.56 578.5,614.5C 578.471,616.029 577.804,617.196 576.5,618C 553.481,635.677 531.648,654.844 511,675.5C 504.007,634.227 497.341,592.893 491,551.5C 489.191,539.847 487.858,528.18 487,516.5C 508.431,498.23 531.598,482.564 556.5,469.5 Z"/></g>
<g><path style="opacity:1" fill="#4b9122" d="M 744.5,504.5 C 788.202,507.013 831.868,510.013 875.5,513.5C 870.57,530.893 864.57,547.893 857.5,564.5C 851.667,564.833 845.833,565.167 840,565.5C 787.16,563.775 734.326,561.942 681.5,560C 703.88,543.123 724.88,524.623 744.5,504.5 Z"/></g>
<g><path style="opacity:1" fill="#98b875" d="M 473.5,527.5 C 474.649,527.791 475.316,528.624 475.5,530C 484.164,581.658 492.497,633.325 500.5,685C 478.538,706.835 457.871,729.668 438.5,753.5C 425.865,710.3 413.532,666.967 401.5,623.5C 414.433,597.295 430.599,573.295 450,551.5C 458.036,543.632 465.869,535.632 473.5,527.5 Z"/></g>
<g><path style="opacity:1" fill="#4b9122" d="M 664.5,571.5 C 726.843,573.479 789.176,575.813 851.5,578.5C 839.489,604.555 824.489,628.555 806.5,650.5C 737.883,639.811 669.216,629.311 600.5,619C 621.171,602.147 642.504,586.314 664.5,571.5 Z"/></g>
<g><path style="opacity:1" fill="#026eab" d="M 233.5,555.5 C 229.816,574.653 227.816,593.987 227.5,613.5C 226.834,618.99 226.501,624.657 226.5,630.5C 228.225,697.068 242.725,760.735 270,821.5C 305.368,896.997 351.868,964.664 409.5,1024.5C 430.272,1046.28 452.272,1066.61 475.5,1085.5C 502.973,1110.13 530.639,1134.63 558.5,1159C 601.948,1200.53 640.781,1245.7 675,1294.5C 732.689,1376.83 773.022,1467.16 796,1565.5C 819.448,1671.44 812.948,1775.44 776.5,1877.5C 775.641,1857 774.974,1836.33 774.5,1815.5C 770.444,1748.93 758.278,1683.93 738,1620.5C 705.739,1517.65 659.405,1421.99 599,1333.5C 574.474,1298.63 547.308,1265.79 517.5,1235C 476.753,1197.62 436.419,1159.79 396.5,1121.5C 378.438,1102.77 360.771,1083.77 343.5,1064.5C 320.944,1036.44 300.111,1007.1 281,976.5C 238.206,907.118 213.206,831.785 206,750.5C 204.067,693.564 210.4,637.564 225,582.5C 227.369,573.234 230.202,564.234 233.5,555.5 Z"/></g>
<g><path style="opacity:1" fill="#98b875" d="M 1043.5,594.5 C 1042.5,602.496 1041.33,610.496 1040,618.5C 1038.06,625.492 1036.22,632.492 1034.5,639.5C 1030.95,647.6 1027.12,655.6 1023,663.5C 994.388,713.814 958.554,758.647 915.5,798C 859.508,847.67 799.842,892.336 736.5,932C 650.376,984.617 563.376,1035.78 475.5,1085.5C 452.272,1066.61 430.272,1046.28 409.5,1024.5C 451.479,999.507 493.812,975.007 536.5,951C 609.34,913.416 681.673,875.083 753.5,836C 812.483,803.32 868.483,766.32 921.5,725C 968.666,687.342 1009.33,643.842 1043.5,594.5 Z"/></g>
<g><path style="opacity:1" fill="#4b9121" d="M 586.5,629.5 C 657.332,639.187 727.999,649.854 798.5,661.5C 775.285,689.723 748.951,714.389 719.5,735.5C 652.793,720.105 586.127,704.605 519.5,689C 540.838,667.816 563.171,647.983 586.5,629.5 Z"/></g>
<g><path style="opacity:1" fill="#98b876" d="M 392.5,640.5 C 394.311,642.385 395.478,644.719 396,647.5C 407.099,686.738 418.266,725.904 429.5,765C 410.38,790.732 395.547,818.899 385,849.5C 383.793,855.201 382.46,860.868 381,866.5C 365.924,807.152 364.591,747.485 377,687.5C 381.065,671.47 386.232,655.804 392.5,640.5 Z"/></g>
<g><path style="opacity:1" fill="#4b9121" d="M 2509.5,655.5 C 2531.34,653.405 2552.34,656.572 2572.5,665C 2606.43,683.347 2620.93,711.847 2616,750.5C 2609.97,781.442 2593.13,804.276 2565.5,819C 2549.56,825.192 2533.23,826.192 2516.5,822C 2501.78,817.641 2487.78,811.641 2474.5,804C 2422.97,786.341 2379.13,797.841 2343,838.5C 2321.29,863.927 2307.62,893.261 2302,926.5C 2301.33,1060.17 2301.33,1193.83 2302,1327.5C 2302.21,1343.9 2306.21,1359.23 2314,1373.5C 2320.87,1381.02 2329.37,1385.52 2339.5,1387C 2373.83,1387.33 2408.17,1387.67 2442.5,1388C 2447.33,1388.83 2450.17,1391.67 2451,1396.5C 2451.67,1412.5 2451.67,1428.5 2451,1444.5C 2449.41,1452.39 2444.58,1455.39 2436.5,1453.5C 2308.5,1446.88 2180.5,1446.88 2052.5,1453.5C 2044.47,1455.41 2039.64,1452.41 2038,1444.5C 2037.33,1428.5 2037.33,1412.5 2038,1396.5C 2039.71,1391.46 2043.21,1388.63 2048.5,1388C 2078.83,1387.67 2109.17,1387.33 2139.5,1387C 2155.97,1385.54 2165.47,1376.7 2168,1360.5C 2168.33,1351.17 2168.67,1341.83 2169,1332.5C 2170.53,1200.17 2170.86,1067.84 2170,935.5C 2169.57,917.139 2166.9,899.139 2162,881.5C 2157.57,869.086 2150.74,858.253 2141.5,849C 2133.85,842.842 2125.85,837.175 2117.5,832C 2097.59,821.215 2077.59,810.715 2057.5,800.5C 2057,799.5 2056.5,798.5 2056,797.5C 2055.33,791.167 2055.33,784.833 2056,778.5C 2056.88,775.898 2058.38,773.731 2060.5,772C 2125.37,738.063 2190.37,704.396 2255.5,671C 2263.38,666.889 2271.71,665.555 2280.5,667C 2285.73,669.949 2288.56,674.449 2289,680.5C 2291.79,724.872 2294.96,769.206 2298.5,813.5C 2301.69,813.98 2304.52,813.314 2307,811.5C 2340.83,759 2384,715.833 2436.5,682C 2459.27,668.469 2483.61,659.635 2509.5,655.5 Z"/></g>
<g><path style="opacity:1" fill="#4b9121" d="M 1584.5,666.5 C 1640.24,662.838 1694.24,670.671 1746.5,690C 1788.66,706.807 1821.83,734.307 1846,772.5C 1851.18,782.033 1855.18,792.033 1858,802.5C 1862.21,842.915 1844.71,867.748 1805.5,877C 1779.79,880.74 1756.46,875.073 1735.5,860C 1728.03,853.532 1720.86,846.698 1714,839.5C 1707.94,831.778 1702.28,823.778 1697,815.5C 1685.22,790.428 1669.38,768.261 1649.5,749C 1626.66,731.282 1600.66,723.115 1571.5,724.5C 1521.13,725.671 1477.46,743.171 1440.5,777C 1394.86,822.776 1367.7,877.943 1359,942.5C 1349.66,1007.72 1354.99,1071.72 1375,1134.5C 1388.12,1178.21 1406.45,1219.54 1430,1258.5C 1472.17,1328.93 1534.34,1368.1 1616.5,1376C 1644.21,1377.05 1671.88,1376.38 1699.5,1374C 1744.18,1368.23 1783.84,1351.23 1818.5,1323C 1828.46,1314.7 1838.13,1306.04 1847.5,1297C 1851.5,1295 1855.5,1295 1859.5,1297C 1867,1304.5 1874.5,1312 1882,1319.5C 1886.28,1324.54 1886.62,1329.88 1883,1335.5C 1875.57,1344.93 1867.4,1353.77 1858.5,1362C 1746.02,1457.95 1617.35,1489.62 1472.5,1457C 1402.93,1437.07 1346.1,1398.57 1302,1341.5C 1239.16,1258.54 1212.5,1164.87 1222,1060.5C 1230.54,958.131 1267.87,868.131 1334,790.5C 1401.08,716.209 1484.58,674.876 1584.5,666.5 Z"/></g>
<g><path style="opacity:1" fill="#4b9121" d="M 3096.5,666.5 C 3243.86,658.226 3340.69,723.893 3387,863.5C 3395.56,889.166 3399.22,915.499 3398,942.5C 3396.08,949.528 3391.91,954.694 3385.5,958C 3378.76,960.769 3371.76,962.435 3364.5,963C 3208.46,962.835 3052.62,963.669 2897,965.5C 2894.88,978.75 2893.54,992.083 2893,1005.5C 2887.91,1066.45 2895.24,1125.78 2915,1183.5C 2935.37,1239.46 2969.2,1285.29 3016.5,1321C 3082.95,1365.72 3154.62,1376.06 3231.5,1352C 3294.67,1332.15 3342.17,1293.32 3374,1235.5C 3377.82,1231.83 3382.32,1230.33 3387.5,1231C 3397.41,1235.87 3406.91,1241.37 3416,1247.5C 3417.07,1255.57 3415.73,1263.24 3412,1270.5C 3381.47,1335.7 3335.97,1387.87 3275.5,1427C 3217.13,1461.28 3154.13,1475.28 3086.5,1469C 3019.5,1465.78 2958.17,1445.78 2902.5,1409C 2875.25,1389.08 2852.08,1365.25 2833,1337.5C 2785.37,1270.61 2760.04,1195.94 2757,1113.5C 2747.94,1028.66 2760.6,947.324 2795,869.5C 2827.77,800.398 2876.94,746.231 2942.5,707C 2990.88,681.907 3042.21,668.407 3096.5,666.5 Z"/></g>
<g><path style="opacity:1" fill="#016eab" d="M 3951.5,666.5 C 3974.19,666.129 3996.86,666.629 4019.5,668C 4066.5,671.744 4105.66,690.91 4137,725.5C 4157.44,751.869 4167.44,781.869 4167,815.5C 4167.33,964.167 4167.67,1112.83 4168,1261.5C 4168.98,1289.07 4174.31,1315.73 4184,1341.5C 4194.25,1362.87 4211.08,1371.37 4234.5,1367C 4258.95,1363.28 4278.62,1351.61 4293.5,1332C 4297.33,1329.96 4301,1330.3 4304.5,1333C 4309.21,1337.38 4314.21,1341.38 4319.5,1345C 4328.06,1352.66 4329.89,1361.83 4325,1372.5C 4285.56,1453.96 4221.73,1483.8 4133.5,1462C 4097.63,1445.46 4072.8,1418.63 4059,1381.5C 4054.66,1370.82 4051.49,1359.82 4049.5,1348.5C 4047.8,1348.34 4046.13,1348.51 4044.5,1349C 4016.93,1379.77 3984.93,1404.77 3948.5,1424C 3914.75,1441.81 3879.41,1455.47 3842.5,1465C 3820.14,1468.59 3797.64,1470.09 3775,1469.5C 3722.77,1472.9 3685.77,1450.9 3664,1403.5C 3647.91,1361.34 3643.91,1318.01 3652,1273.5C 3662.22,1230.55 3684.05,1194.72 3717.5,1166C 3740.61,1146.6 3765.61,1129.94 3792.5,1116C 3828.74,1099.04 3865.08,1082.38 3901.5,1066C 3940.17,1048.5 3977.83,1029.17 4014.5,1008C 4021.93,1003.2 4029.1,998.034 4036,992.5C 4036.67,952.833 4036.67,913.167 4036,873.5C 4034.45,848.095 4030.45,823.095 4024,798.5C 4018.72,781.891 4008.88,768.724 3994.5,759C 3973.45,745.649 3950.45,737.649 3925.5,735C 3881.8,730.96 3840.46,738.96 3801.5,759C 3792.81,764.023 3784.97,770.19 3778,777.5C 3774.28,782.275 3771.61,787.609 3770,793.5C 3769.33,801.833 3769.33,810.167 3770,818.5C 3777.23,851.463 3775.23,883.797 3764,915.5C 3752.8,938.875 3734.3,952.708 3708.5,957C 3694.25,959.307 3679.91,959.973 3665.5,959C 3648.85,955.016 3639.02,944.516 3636,927.5C 3630.84,899.773 3634.18,873.106 3646,847.5C 3663.71,811.951 3688.21,781.784 3719.5,757C 3775.18,714.333 3837.51,685.999 3906.5,672C 3921.63,670.023 3936.63,668.19 3951.5,666.5 Z"/></g>
<g><path style="opacity:1" fill="#4b9122" d="M 507.5,699.5 C 574.385,713.843 641.052,729.01 707.5,745C 674.12,768.822 638.787,789.656 601.5,807.5C 550.457,793.989 499.457,780.323 448.5,766.5C 467.073,743.257 486.74,720.924 507.5,699.5 Z"/></g>
<g><path style="opacity:1" fill="#fefefe" d="M 3077.5,721.5 C 3154.25,717.104 3204.09,751.437 3227,824.5C 3233.38,845.042 3236.38,866.042 3236,887.5C 3233.96,895.876 3228.79,901.376 3220.5,904C 3214.64,905.965 3208.64,907.298 3202.5,908C 3103.5,908.5 3004.5,908.667 2905.5,908.5C 2916.29,859.924 2937.46,816.59 2969,778.5C 2998.33,746.421 3034.49,727.421 3077.5,721.5 Z"/></g>
<g><path style="opacity:1" fill="#4b9121" d="M 440.5,777.5 C 488.561,789.682 536.561,802.182 584.5,815C 556.767,828.03 528.434,839.697 499.5,850C 465.228,861.647 430.728,872.48 396,882.5C 395.981,867.571 398.981,853.238 405,839.5C 414.556,817.371 426.389,796.705 440.5,777.5 Z"/></g>
<g><path style="opacity:1" fill="#fefefe" d="M 4033.5,1047.5 C 4034.67,1124 4034.83,1200.67 4034,1277.5C 4030.47,1291.9 4023.8,1304.56 4014,1315.5C 3984.63,1347.11 3949.13,1368.94 3907.5,1381C 3880.41,1387.07 3854.74,1383.41 3830.5,1370C 3806.32,1352.43 3793.15,1328.6 3791,1298.5C 3787.33,1242.48 3806.17,1195.64 3847.5,1158C 3869.92,1138.62 3894.26,1121.95 3920.5,1108C 3956,1090.75 3991,1072.75 4025.5,1054C 4028.36,1051.97 4031.02,1049.8 4033.5,1047.5 Z"/></g>
<g><path style="opacity:1" fill="#98b875" d="M 343.5,1064.5 C 360.771,1083.77 378.438,1102.77 396.5,1121.5C 305.867,1165.6 226.033,1224.6 157,1298.5C 120.889,1338.05 90.7223,1381.72 66.5,1429.5C 67.2834,1408.42 69.95,1387.59 74.5,1367C 74.4301,1366.24 74.0967,1365.74 73.5,1365.5C 85.7315,1338.37 99.5648,1312.04 115,1286.5C 174.651,1195.35 250.818,1121.35 343.5,1064.5 Z"/></g>
<g><path style="opacity:1" fill="#fefefe" d="M 396.5,1121.5 C 436.419,1159.79 476.753,1197.62 517.5,1235C 547.308,1265.79 574.474,1298.63 599,1333.5C 659.405,1421.99 705.739,1517.65 738,1620.5C 758.278,1683.93 770.444,1748.93 774.5,1815.5C 754.175,1866.28 727.008,1912.95 693,1955.5C 678.044,1974.39 662.377,1992.72 646,2010.5C 619.66,2037.67 593.16,2064.67 566.5,2091.5C 519.649,2062.83 472.649,2034.33 425.5,2006C 317.089,1935.59 227.256,1846.42 156,1738.5C 119.775,1681.52 93.4415,1620.18 77,1554.5C 67.5639,1513.33 64.0639,1471.66 66.5,1429.5C 90.7223,1381.72 120.889,1338.05 157,1298.5C 226.033,1224.6 305.867,1165.6 396.5,1121.5 Z"/></g>
<g><path style="opacity:1" fill="#036eab" d="M 385.5,1235.5 C 386.043,1235.56 386.376,1235.89 386.5,1236.5C 347.688,1336.73 326.355,1440.56 322.5,1548C 321.741,1598.28 329.574,1647.11 346,1694.5C 370.462,1755.79 412.629,1799.79 472.5,1826.5C 388.899,1835.45 327.733,1802.79 289,1728.5C 263.639,1671.59 257.306,1612.59 270,1551.5C 283.163,1492.01 301.163,1434.01 324,1377.5C 342.869,1329.37 363.369,1282.04 385.5,1235.5 Z"/></g>
<g><path style="opacity:1" fill="#3692c1" d="M 385.5,1235.5 C 391.522,1276.29 406.022,1314.96 429,1351.5C 468.31,1410.84 514.31,1464.84 567,1513.5C 622.368,1576.38 635.035,1647.05 605,1725.5C 577.819,1781.2 533.652,1814.87 472.5,1826.5C 412.629,1799.79 370.462,1755.79 346,1694.5C 329.574,1647.11 321.741,1598.28 322.5,1548C 326.355,1440.56 347.688,1336.73 386.5,1236.5C 386.376,1235.89 386.043,1235.56 385.5,1235.5 Z"/></g>
<g><path style="opacity:1" fill="#026eab" d="M 73.5,1365.5 C 74.0967,1365.74 74.4301,1366.24 74.5,1367C 69.95,1387.59 67.2834,1408.42 66.5,1429.5C 64.0639,1471.66 67.5639,1513.33 77,1554.5C 93.4415,1620.18 119.775,1681.52 156,1738.5C 227.256,1846.42 317.089,1935.59 425.5,2006C 472.649,2034.33 519.649,2062.83 566.5,2091.5C 586.338,2104.25 606.005,2117.25 625.5,2130.5C 646.229,2147.05 666.562,2164.22 686.5,2182C 703.127,2196.95 716.294,2214.45 726,2234.5C 731.931,2251.3 737.265,2268.3 742,2285.5C 748.981,2304.11 756.981,2322.11 766,2339.5C 761.043,2332.87 755.709,2326.54 750,2320.5C 698.026,2268.66 640.526,2224.32 577.5,2187.5C 561.201,2177.01 544.534,2167.01 527.5,2157.5C 499.3,2141.9 470.633,2127.07 441.5,2113C 326.103,2048.29 228.603,1962.79 149,1856.5C 113.341,1807.42 85.3408,1754.09 65,1696.5C 45.1366,1638.45 37.1366,1578.79 41,1517.5C 44.0097,1485.12 49.343,1453.12 57,1421.5C 60.9962,1402.35 66.4962,1383.68 73.5,1365.5 Z"/></g>
<g><path style="opacity:1" fill="#0b70ac" d="M 1297.5,1585.5 C 1320.74,1583.6 1341.91,1589.27 1361,1602.5C 1362.92,1599.09 1364.25,1595.42 1365,1591.5C 1366.39,1590.45 1367.89,1590.28 1369.5,1591C 1372.28,1611.74 1374.61,1632.58 1376.5,1653.5C 1374.25,1654.33 1372.08,1654.33 1370,1653.5C 1364.12,1634.2 1353.62,1618.04 1338.5,1605C 1307.87,1587.78 1282.71,1593.62 1263,1622.5C 1252.84,1640.48 1248.34,1659.82 1249.5,1680.5C 1248.98,1714.13 1260.31,1742.96 1283.5,1767C 1296.84,1777.09 1311.84,1780.43 1328.5,1777C 1350.38,1771.95 1367.04,1759.79 1378.5,1740.5C 1380.71,1741.87 1382.37,1743.7 1383.5,1746C 1355.92,1793.08 1317.25,1805.42 1267.5,1783C 1245.94,1767.72 1232.78,1746.88 1228,1720.5C 1218.87,1681.5 1225.87,1645.83 1249,1613.5C 1262.03,1598.57 1278.2,1589.24 1297.5,1585.5 Z"/></g>
<g><path style="opacity:1" fill="#0c70ac" d="M 1871.5,1585.5 C 1873.17,1585.5 1874.83,1585.5 1876.5,1585.5C 1875.51,1648.5 1875.34,1711.5 1876,1774.5C 1876.29,1776.93 1877.46,1778.76 1879.5,1780C 1888.5,1780.67 1897.5,1780.67 1906.5,1780C 1907.13,1779.25 1907.63,1778.42 1908,1777.5C 1908.67,1751.5 1908.67,1725.5 1908,1699.5C 1905.07,1693.61 1900.24,1690.61 1893.5,1690.5C 1893.24,1688.21 1893.58,1686.04 1894.5,1684C 1904.44,1680.03 1913.77,1675.03 1922.5,1669C 1923.79,1668.51 1925.13,1668.34 1926.5,1668.5C 1926.33,1704.17 1926.5,1739.83 1927,1775.5C 1927.27,1777.1 1927.77,1778.6 1928.5,1780C 1933.5,1780.33 1938.5,1780.67 1943.5,1781C 1944.61,1783.74 1944.78,1786.57 1944,1789.5C 1908.57,1790.5 1873.07,1790.83 1837.5,1790.5C 1837.22,1787.22 1837.55,1784.06 1838.5,1781C 1843.83,1780.67 1849.17,1780.33 1854.5,1780C 1855.89,1778.83 1856.73,1777.33 1857,1775.5C 1857.67,1725.17 1857.67,1674.83 1857,1624.5C 1854.2,1616.15 1848.36,1611.15 1839.5,1609.5C 1838.17,1607.83 1838.17,1606.17 1839.5,1604.5C 1850.89,1599.15 1861.56,1592.81 1871.5,1585.5 Z"/></g>
<g><path style="opacity:1" fill="#0a70ac" d="M 2450.5,1585.5 C 2452.47,1585.26 2454.3,1585.59 2456,1586.5C 2455.42,1649.49 2455.42,1712.49 2456,1775.5C 2456.27,1777.33 2457.11,1778.83 2458.5,1780C 2463.83,1780.33 2469.17,1780.67 2474.5,1781C 2475.61,1783.74 2475.78,1786.57 2475,1789.5C 2455.91,1790.49 2436.74,1790.83 2417.5,1790.5C 2417.5,1787.17 2417.5,1783.83 2417.5,1780.5C 2423.18,1780.67 2428.84,1780.5 2434.5,1780C 2435.89,1778.83 2436.73,1777.33 2437,1775.5C 2437.67,1725.83 2437.67,1676.17 2437,1626.5C 2434.86,1617.16 2429.03,1611.49 2419.5,1609.5C 2418.24,1607.65 2418.24,1605.81 2419.5,1604C 2430.86,1599.33 2441.19,1593.16 2450.5,1585.5 Z"/></g>
<g><path style="opacity:1" fill="#0d70ac" d="M 3965.5,1585.5 C 3967.17,1585.5 3968.83,1585.5 3970.5,1585.5C 3970.33,1649.17 3970.5,1712.83 3971,1776.5C 3971.47,1777.93 3972.3,1779.1 3973.5,1780C 3978.83,1780.33 3984.17,1780.67 3989.5,1781C 3990.61,1783.74 3990.78,1786.57 3990,1789.5C 3970.91,1790.49 3951.74,1790.83 3932.5,1790.5C 3932.5,1787.17 3932.5,1783.83 3932.5,1780.5C 3937.84,1780.67 3943.18,1780.5 3948.5,1780C 3950.33,1779.5 3951.5,1778.33 3952,1776.5C 3952.17,1752.17 3952.33,1727.83 3952.5,1703.5C 3952.63,1676.47 3952.13,1649.47 3951,1622.5C 3949.63,1619.12 3947.46,1616.29 3944.5,1614C 3941.05,1612.77 3937.71,1611.27 3934.5,1609.5C 3933.17,1607.83 3933.17,1606.17 3934.5,1604.5C 3942.17,1600.33 3949.83,1596.17 3957.5,1592C 3960.42,1590.05 3963.09,1587.89 3965.5,1585.5 Z"/></g>
<g><path style="opacity:1" fill="#076fab" d="M 1701.5,1606.5 C 1716.98,1606.85 1722.15,1614.52 1717,1629.5C 1712.01,1635.59 1705.84,1637.09 1698.5,1634C 1691.14,1628.05 1689.64,1620.89 1694,1612.5C 1696.11,1609.88 1698.61,1607.88 1701.5,1606.5 Z"/></g>
<g><path style="opacity:1" fill="#0e70ac" d="M 1907.5,1606.5 C 1922.46,1605.97 1927.96,1612.97 1924,1627.5C 1920.53,1635.09 1914.69,1637.59 1906.5,1635C 1894.34,1625 1894.67,1615.5 1907.5,1606.5 Z"/></g>
<g><path style="opacity:1" fill="#066fac" d="M 2697.5,1606.5 C 2712.48,1606.67 2717.65,1614.01 2713,1628.5C 2708.51,1635.55 2702.35,1637.38 2694.5,1634C 2687.14,1628.05 2685.64,1620.89 2690,1612.5C 2692.11,1609.88 2694.61,1607.88 2697.5,1606.5 Z"/></g>
<g><path style="opacity:1" fill="#0d70ac" d="M 3223.5,1606.5 C 3236.13,1605.3 3241.96,1610.96 3241,1623.5C 3238.06,1634.55 3231.23,1638.05 3220.5,1634C 3213.64,1628.91 3211.8,1622.41 3215,1614.5C 3217.07,1610.92 3219.91,1608.26 3223.5,1606.5 Z"/></g>
<g><path style="opacity:1" fill="#0b70ac" d="M 3705.5,1606.5 C 3719.64,1605.81 3725.47,1612.48 3723,1626.5C 3719.47,1634.85 3713.3,1637.68 3704.5,1635C 3697.5,1630.35 3695,1623.85 3697,1615.5C 3699.36,1611.97 3702.2,1608.97 3705.5,1606.5 Z"/></g>
<g><path style="opacity:1" fill="#0b70ac" d="M 4021.5,1664.5 C 4020.53,1666.95 4020.19,1669.61 4020.5,1672.5C 4038.34,1672.83 4056.01,1672.5 4073.5,1671.5C 4075.53,1671.34 4077.53,1671.5 4079.5,1672C 4080.12,1673.4 4080.45,1674.9 4080.5,1676.5C 4079.37,1703.49 4079.2,1730.49 4080,1757.5C 4086.43,1781.39 4099.6,1786.22 4119.5,1772C 4122.49,1769.01 4124.66,1765.51 4126,1761.5C 4126.67,1736.5 4126.67,1711.5 4126,1686.5C 4122.24,1682.17 4117.41,1680.33 4111.5,1681C 4110.39,1678.26 4110.22,1675.43 4111,1672.5C 4122.42,1671.51 4133.92,1671.18 4145.5,1671.5C 4144.38,1703.48 4144.21,1735.48 4145,1767.5C 4145.23,1770.46 4146.4,1772.96 4148.5,1775C 4152.88,1775.46 4157.22,1775.46 4161.5,1775C 4162.41,1776.7 4162.74,1778.53 4162.5,1780.5C 4166.18,1780.67 4169.85,1780.5 4173.5,1780C 4174.67,1779.5 4175.5,1778.67 4176,1777.5C 4176.67,1752.83 4176.67,1728.17 4176,1703.5C 4173.36,1696.86 4168.69,1692.19 4162,1689.5C 4161.33,1688.17 4161.33,1686.83 4162,1685.5C 4170.24,1679.63 4178.74,1674.13 4187.5,1669C 4189.13,1668.51 4190.8,1668.34 4192.5,1668.5C 4192.61,1676.19 4193.11,1683.86 4194,1691.5C 4199.36,1681.59 4206.86,1673.76 4216.5,1668C 4230.85,1664.35 4237.02,1669.85 4235,1684.5C 4230.2,1694.66 4223.37,1696.16 4214.5,1689C 4207.23,1688.25 4201.73,1691.08 4198,1697.5C 4196.25,1700.25 4195.25,1703.25 4195,1706.5C 4194.33,1729.83 4194.33,1753.17 4195,1776.5C 4195.47,1777.93 4196.3,1779.1 4197.5,1780C 4202.83,1780.33 4208.17,1780.67 4213.5,1781C 4214.45,1784.06 4214.78,1787.22 4214.5,1790.5C 4196.15,1790.83 4177.82,1790.5 4159.5,1789.5C 4158.81,1787.56 4158.31,1785.56 4158,1783.5C 4149.49,1787.22 4140.83,1790.56 4132,1793.5C 4130.67,1793.25 4129.67,1792.58 4129,1791.5C 4128.47,1785.49 4127.8,1779.49 4127,1773.5C 4117.16,1787.67 4103.66,1794.17 4086.5,1793C 4078.81,1789.97 4072.97,1784.81 4069,1777.5C 4066.21,1772.47 4064.21,1767.13 4063,1761.5C 4061.72,1736.54 4061.06,1711.54 4061,1686.5C 4059.28,1683.6 4056.78,1682.27 4053.5,1682.5C 4053.5,1683.83 4053.5,1685.17 4053.5,1686.5C 4042.5,1686.5 4031.5,1686.5 4020.5,1686.5C 4019.51,1711.83 4019.34,1737.16 4020,1762.5C 4023.35,1780.25 4033.02,1784.58 4049,1775.5C 4052.78,1777.28 4053.45,1779.95 4051,1783.5C 4041.16,1791.75 4029.99,1794.59 4017.5,1792C 4009.36,1787.86 4004.19,1781.36 4002,1772.5C 4002.02,1743.84 4002.19,1715.17 4002.5,1686.5C 3996.82,1686.67 3991.16,1686.5 3985.5,1686C 3984.45,1684.61 3984.28,1683.11 3985,1681.5C 3993.04,1675.13 4000.04,1667.79 4006,1659.5C 4010.44,1653.63 4014.1,1647.29 4017,1640.5C 4018.67,1639.17 4020.33,1639.17 4022,1640.5C 4022.27,1648.5 4022.1,1656.5 4021.5,1664.5 Z"/></g>
<g><path style="opacity:1" fill="#0c70ac" d="M 2361.5,1666.5 C 2376.17,1666.48 2381.01,1673.48 2376,1687.5C 2373.78,1690.74 2370.78,1692.74 2367,1693.5C 2363.12,1692.15 2359.29,1690.65 2355.5,1689C 2348.78,1688.78 2343.61,1691.62 2340,1697.5C 2338.25,1700.25 2337.25,1703.25 2337,1706.5C 2336.33,1729.83 2336.33,1753.17 2337,1776.5C 2337.47,1777.93 2338.3,1779.1 2339.5,1780C 2344.83,1780.33 2350.17,1780.67 2355.5,1781C 2356.45,1784.06 2356.78,1787.22 2356.5,1790.5C 2338.17,1790.5 2319.83,1790.5 2301.5,1790.5C 2301.5,1787.17 2301.5,1783.83 2301.5,1780.5C 2306.18,1780.67 2310.85,1780.5 2315.5,1780C 2316.67,1779.5 2317.5,1778.67 2318,1777.5C 2318.67,1752.5 2318.67,1727.5 2318,1702.5C 2314.97,1696.47 2310.3,1692.14 2304,1689.5C 2303.33,1688.17 2303.33,1686.83 2304,1685.5C 2313.43,1678.37 2323.59,1672.71 2334.5,1668.5C 2334.61,1676.19 2335.11,1683.86 2336,1691.5C 2341.77,1680.23 2350.27,1671.9 2361.5,1666.5 Z"/></g>
<g><path style="opacity:1" fill="#0d70ac" d="M 2669.5,1666.5 C 2680.82,1665.82 2686.82,1671.15 2687.5,1682.5C 2696.15,1678.51 2704.49,1674.01 2712.5,1669C 2713.79,1668.51 2715.13,1668.34 2716.5,1668.5C 2716.33,1705.17 2716.5,1741.83 2717,1778.5C 2717.5,1779 2718,1779.5 2718.5,1780C 2723.17,1780.33 2727.83,1780.67 2732.5,1781C 2733.45,1784.06 2733.78,1787.22 2733.5,1790.5C 2715.59,1790.83 2697.76,1790.49 2680,1789.5C 2679.22,1786.57 2679.39,1783.74 2680.5,1781C 2685.83,1780.67 2691.17,1780.33 2696.5,1780C 2697.13,1779.25 2697.63,1778.42 2698,1777.5C 2698.67,1751.83 2698.67,1726.17 2698,1700.5C 2696.97,1697.46 2695.14,1694.96 2692.5,1693C 2689.24,1692.03 2686.07,1690.86 2683,1689.5C 2681.13,1692.02 2678.63,1693.35 2675.5,1693.5C 2671.8,1692.82 2668.47,1691.32 2665.5,1689C 2659.05,1687.97 2653.88,1690.14 2650,1695.5C 2647.57,1698.8 2645.9,1702.46 2645,1706.5C 2644.33,1729.5 2644.33,1752.5 2645,1775.5C 2645.78,1777.29 2646.95,1778.79 2648.5,1780C 2653.82,1780.5 2659.16,1780.67 2664.5,1780.5C 2664.5,1783.83 2664.5,1787.17 2664.5,1790.5C 2646.17,1790.5 2627.83,1790.5 2609.5,1790.5C 2609.22,1787.22 2609.55,1784.06 2610.5,1781C 2615.17,1780.67 2619.83,1780.33 2624.5,1780C 2625.89,1778.83 2626.73,1777.33 2627,1775.5C 2627.8,1751.82 2627.64,1728.15 2626.5,1704.5C 2626.24,1701.97 2625.4,1699.64 2624,1697.5C 2620.17,1694.59 2616.17,1691.92 2612,1689.5C 2611.33,1688.17 2611.33,1686.83 2612,1685.5C 2621.13,1679.2 2630.63,1673.53 2640.5,1668.5C 2641.44,1668.61 2642.28,1668.94 2643,1669.5C 2643.21,1676.55 2643.88,1683.55 2645,1690.5C 2651.07,1680.26 2659.24,1672.26 2669.5,1666.5 Z"/></g>
<g><path style="opacity:1" fill="#0d70ac" d="M 2969.5,1666.5 C 2982.68,1666.18 2987.85,1672.51 2985,1685.5C 2982.51,1691.02 2978.34,1693.52 2972.5,1693C 2957.86,1685.73 2948.7,1690.23 2945,1706.5C 2944.33,1729.83 2944.33,1753.17 2945,1776.5C 2945.47,1777.93 2946.3,1779.1 2947.5,1780C 2952.83,1780.33 2958.17,1780.67 2963.5,1781C 2964.45,1784.06 2964.78,1787.22 2964.5,1790.5C 2945.76,1791.15 2927.26,1790.48 2909,1788.5C 2908.23,1785.9 2908.4,1783.4 2909.5,1781C 2914.17,1780.67 2918.83,1780.33 2923.5,1780C 2924.67,1779.5 2925.5,1778.67 2926,1777.5C 2926.67,1752.5 2926.67,1727.5 2926,1702.5C 2922.94,1696.44 2918.28,1692.11 2912,1689.5C 2911.33,1688.17 2911.33,1686.83 2912,1685.5C 2919.41,1680.54 2926.91,1675.71 2934.5,1671C 2936.91,1669.29 2939.58,1668.46 2942.5,1668.5C 2942.61,1676.19 2943.11,1683.86 2944,1691.5C 2949.77,1680.23 2958.27,1671.9 2969.5,1666.5 Z"/></g>
<g><path style="opacity:1" fill="#0e70ac" d="M 3678.5,1666.5 C 3689.79,1665.79 3695.79,1671.12 3696.5,1682.5C 3704.99,1678.76 3712.99,1674.26 3720.5,1669C 3721.79,1668.51 3723.13,1668.34 3724.5,1668.5C 3724.33,1704.17 3724.5,1739.83 3725,1775.5C 3725.27,1777.33 3726.11,1778.83 3727.5,1780C 3732.17,1780.33 3736.83,1780.67 3741.5,1781C 3742.45,1784.06 3742.78,1787.22 3742.5,1790.5C 3724.5,1790.5 3706.5,1790.5 3688.5,1790.5C 3688.22,1787.22 3688.55,1784.06 3689.5,1781C 3695.29,1781.09 3700.79,1780.26 3706,1778.5C 3706.67,1751.83 3706.67,1725.17 3706,1698.5C 3703.46,1694.14 3699.62,1691.64 3694.5,1691C 3690.88,1691.05 3687.38,1691.88 3684,1693.5C 3669.16,1684.91 3659.16,1688.91 3654,1705.5C 3653.33,1729.17 3653.33,1752.83 3654,1776.5C 3654.96,1777.58 3655.79,1778.75 3656.5,1780C 3661.83,1780.33 3667.17,1780.67 3672.5,1781C 3673.45,1784.06 3673.78,1787.22 3673.5,1790.5C 3655.17,1790.5 3636.83,1790.5 3618.5,1790.5C 3618.5,1787.17 3618.5,1783.83 3618.5,1780.5C 3623.18,1780.67 3627.85,1780.5 3632.5,1780C 3633.42,1779.63 3634.25,1779.13 3635,1778.5C 3635.67,1753.17 3635.67,1727.83 3635,1702.5C 3632.84,1697.65 3629.34,1693.98 3624.5,1691.5C 3620.72,1696.4 3616.06,1697.57 3610.5,1695C 3606.79,1690.3 3602.12,1688.8 3596.5,1690.5C 3596.17,1691.17 3595.83,1691.83 3595.5,1692.5C 3600.67,1709.47 3599.17,1725.8 3591,1741.5C 3580.17,1754.49 3566.34,1759.49 3549.5,1756.5C 3542.22,1759.45 3537.88,1764.78 3536.5,1772.5C 3536.74,1776.57 3538.74,1779.4 3542.5,1781C 3557.17,1781.33 3571.83,1781.67 3586.5,1782C 3613.68,1790.18 3623.18,1808.01 3615,1835.5C 3606.45,1853.36 3592.29,1863.53 3572.5,1866C 3561.45,1866.88 3550.45,1866.55 3539.5,1865C 3517.65,1859.85 3508.82,1846.35 3513,1824.5C 3518.31,1814.03 3526.14,1806.03 3536.5,1800.5C 3518.91,1791.89 3515.75,1779.56 3527,1763.5C 3531.27,1759.23 3536.11,1755.73 3541.5,1753C 3524.63,1740.41 3517.46,1723.57 3520,1702.5C 3528.25,1674.79 3546.41,1664.29 3574.5,1671C 3581.49,1673.82 3587.15,1678.32 3591.5,1684.5C 3597.76,1678.7 3605.09,1675.04 3613.5,1673.5C 3619.24,1673.78 3623.41,1676.45 3626,1681.5C 3633.72,1676.94 3641.55,1672.61 3649.5,1668.5C 3650.65,1668.82 3651.48,1669.48 3652,1670.5C 3652.17,1677.52 3652.67,1684.52 3653.5,1691.5C 3658.97,1680.16 3667.3,1671.82 3678.5,1666.5 Z"/></g>
<g><path style="opacity:1" fill="#0d70ac" d="M 1433.5,1668.5 C 1460.7,1667.53 1478.87,1679.87 1488,1705.5C 1495.83,1729.52 1492.5,1751.86 1478,1772.5C 1458.93,1795.32 1436.76,1799.15 1411.5,1784C 1391.93,1765.27 1384.76,1742.44 1390,1715.5C 1396.11,1691.89 1410.61,1676.23 1433.5,1668.5 Z"/></g>
<g><path style="opacity:1" fill="#0c70ac" d="M 1523.5,1668.5 C 1524.82,1668.33 1525.99,1668.66 1527,1669.5C 1527.86,1675.83 1528.69,1682.16 1529.5,1688.5C 1535.67,1680.42 1543.33,1674.26 1552.5,1670C 1575.31,1665.16 1589.81,1673.99 1596,1696.5C 1596.33,1723.5 1596.67,1750.5 1597,1777.5C 1597.37,1778.42 1597.87,1779.25 1598.5,1780C 1602.83,1780.33 1607.17,1780.67 1611.5,1781C 1612.61,1783.74 1612.78,1786.57 1612,1789.5C 1595.91,1790.49 1579.74,1790.82 1563.5,1790.5C 1563.5,1787.17 1563.5,1783.83 1563.5,1780.5C 1567.51,1780.67 1571.51,1780.5 1575.5,1780C 1576.89,1778.83 1577.73,1777.33 1578,1775.5C 1578.67,1749.5 1578.67,1723.5 1578,1697.5C 1574.2,1687.17 1566.7,1682.17 1555.5,1682.5C 1542.71,1684.11 1534.21,1691.11 1530,1703.5C 1529.33,1727.83 1529.33,1752.17 1530,1776.5C 1530.31,1777.77 1530.81,1778.93 1531.5,1780C 1535.42,1780.2 1539.25,1780.7 1543,1781.5C 1543.5,1784.48 1543.66,1787.48 1543.5,1790.5C 1528.17,1790.5 1512.83,1790.5 1497.5,1790.5C 1497.22,1787.22 1497.55,1784.06 1498.5,1781C 1502.17,1780.67 1505.83,1780.33 1509.5,1780C 1510,1779.5 1510.5,1779 1511,1778.5C 1511.67,1753.17 1511.67,1727.83 1511,1702.5C 1509,1696.5 1505,1692.5 1499,1690.5C 1498.19,1688.42 1498.36,1686.42 1499.5,1684.5C 1507.57,1679.14 1515.57,1673.81 1523.5,1668.5 Z"/></g>
<g><path style="opacity:1" fill="#0d70ac" d="M 1641.5,1668.5 C 1651.24,1667.6 1660.58,1669.1 1669.5,1673C 1672.33,1674.5 1674.5,1676.67 1676,1679.5C 1677.09,1686.02 1678.25,1692.52 1679.5,1699C 1678.55,1701.55 1676.71,1703.05 1674,1703.5C 1669.09,1696.67 1664.42,1689.67 1660,1682.5C 1647.5,1674.07 1637.5,1676.41 1630,1689.5C 1627.79,1698.68 1629.95,1706.51 1636.5,1713C 1646.46,1717.31 1656.46,1721.64 1666.5,1726C 1679.17,1735.77 1683.67,1748.61 1680,1764.5C 1673.78,1786.35 1659.28,1795.85 1636.5,1793C 1629.93,1791.63 1624.09,1788.8 1619,1784.5C 1617.46,1775.01 1615.96,1765.51 1614.5,1756C 1614.56,1754.56 1614.89,1753.23 1615.5,1752C 1617.47,1751.5 1619.47,1751.34 1621.5,1751.5C 1624.51,1760.52 1628.34,1769.18 1633,1777.5C 1642.94,1786.8 1652.94,1786.8 1663,1777.5C 1667.62,1768.47 1667.62,1759.47 1663,1750.5C 1660.8,1747.96 1658.3,1745.79 1655.5,1744C 1646.13,1740.81 1637.13,1736.81 1628.5,1732C 1617.51,1721.9 1613.34,1709.4 1616,1694.5C 1620.02,1681.32 1628.52,1672.65 1641.5,1668.5 Z"/></g>
<g><path style="opacity:1" fill="#1271ad" d="M 1716.5,1668.5 C 1717.83,1668.5 1719.17,1668.5 1720.5,1668.5C 1720.33,1704.83 1720.5,1741.17 1721,1777.5C 1721.37,1778.42 1721.87,1779.25 1722.5,1780C 1727.17,1780.33 1731.83,1780.67 1736.5,1781C 1737.45,1784.06 1737.78,1787.22 1737.5,1790.5C 1719.59,1790.83 1701.76,1790.49 1684,1789.5C 1683.22,1786.57 1683.39,1783.74 1684.5,1781C 1689.83,1780.67 1695.17,1780.33 1700.5,1780C 1701.13,1779.25 1701.63,1778.42 1702,1777.5C 1702.67,1751.83 1702.67,1726.17 1702,1700.5C 1699.46,1693.98 1694.63,1690.48 1687.5,1690C 1686.24,1688.19 1686.24,1686.35 1687.5,1684.5C 1697.71,1679.9 1707.38,1674.57 1716.5,1668.5 Z"/></g>
<g><path style="opacity:1" fill="#0c70ac" d="M 1773.5,1668.5 C 1789.97,1666.21 1803.31,1671.54 1813.5,1684.5C 1819.63,1678.85 1826.8,1675.18 1835,1673.5C 1847.34,1675.52 1850.68,1682.19 1845,1693.5C 1841.91,1696.1 1838.41,1696.93 1834.5,1696C 1831.83,1694 1829.17,1692 1826.5,1690C 1824.17,1689.33 1821.83,1689.33 1819.5,1690C 1818.57,1690.39 1817.91,1691.05 1817.5,1692C 1823.23,1710.56 1821.06,1728.06 1811,1744.5C 1799.28,1755.52 1785.44,1759.68 1769.5,1757C 1764.95,1759.88 1761.45,1763.72 1759,1768.5C 1757.36,1774.73 1759.53,1778.9 1765.5,1781C 1779.83,1781.33 1794.17,1781.67 1808.5,1782C 1833.13,1788.41 1843.3,1804.25 1839,1829.5C 1832.29,1850.21 1818.12,1862.37 1796.5,1866C 1786.17,1866.67 1775.83,1866.67 1765.5,1866C 1753.73,1864.2 1744.23,1858.7 1737,1849.5C 1730.24,1833.1 1733.74,1819.27 1747.5,1808C 1751.17,1805.5 1754.83,1803 1758.5,1800.5C 1746.4,1795.97 1741.23,1787.3 1743,1774.5C 1746.91,1764.61 1753.74,1757.45 1763.5,1753C 1747.24,1740.6 1740.08,1724.1 1742,1703.5C 1746.07,1685.94 1756.57,1674.27 1773.5,1668.5 Z"/></g>
<g><path style="opacity:1" fill="#0e70ac" d="M 1989.5,1668.5 C 2016.69,1667.52 2034.86,1679.85 2044,1705.5C 2053.27,1736.25 2046.11,1762.41 2022.5,1784C 1998.92,1799.07 1977.75,1796.23 1959,1775.5C 1945.56,1756.04 1941.56,1734.71 1947,1711.5C 1954.05,1689.95 1968.22,1675.62 1989.5,1668.5 Z"/></g>
<g><path style="opacity:1" fill="#0c70ac" d="M 2133.5,1789.5 C 2133.44,1788.96 2133.11,1788.62 2132.5,1788.5C 2131.17,1809.66 2131.17,1830.66 2132.5,1851.5C 2132.87,1853.44 2133.54,1855.27 2134.5,1857C 2139.5,1857.33 2144.5,1857.67 2149.5,1858C 2150.45,1861.06 2150.78,1864.22 2150.5,1867.5C 2132.5,1867.5 2114.5,1867.5 2096.5,1867.5C 2096.22,1864.22 2096.55,1861.06 2097.5,1858C 2102.17,1857.67 2106.83,1857.33 2111.5,1857C 2113,1855.51 2113.84,1853.68 2114,1851.5C 2114.67,1802.17 2114.67,1752.83 2114,1703.5C 2113.12,1700.9 2111.62,1698.73 2109.5,1697C 2105.72,1694.89 2102.22,1692.39 2099,1689.5C 2098.33,1688.17 2098.33,1686.83 2099,1685.5C 2107.75,1679.87 2116.58,1674.37 2125.5,1669C 2127.44,1668.26 2129.27,1668.42 2131,1669.5C 2131.17,1675.2 2131.67,1680.86 2132.5,1686.5C 2149.71,1665.88 2169.38,1663.04 2191.5,1678C 2201.81,1687.91 2207.31,1700.08 2208,1714.5C 2210.76,1737.34 2205.42,1758 2192,1776.5C 2175.37,1793.54 2155.87,1797.87 2133.5,1789.5 Z"/></g>
<g><path style="opacity:1" fill="#0a70ac" d="M 2295.5,1714.5 C 2274.14,1713.84 2253.14,1714.51 2232.5,1716.5C 2230.46,1733.79 2233.96,1749.79 2243,1764.5C 2254.99,1777.94 2268.82,1780.11 2284.5,1771C 2289.31,1767.19 2292.98,1762.53 2295.5,1757C 2301.39,1756.62 2302.89,1759.12 2300,1764.5C 2285.86,1793.42 2264.36,1800.58 2235.5,1786C 2219.85,1770.56 2212.51,1751.72 2213.5,1729.5C 2213.07,1706.58 2221.73,1688.08 2239.5,1674C 2254.4,1666.39 2269.06,1666.72 2283.5,1675C 2294.8,1685.43 2299.47,1698.27 2297.5,1713.5C 2296.82,1713.86 2296.15,1714.2 2295.5,1714.5 Z"/></g>
<g><path style="opacity:1" fill="#0f71ac" d="M 2511.5,1668.5 C 2524.83,1665.55 2535.33,1669.55 2543,1680.5C 2543.82,1682.79 2544.49,1685.12 2545,1687.5C 2545.33,1714.5 2545.67,1741.5 2546,1768.5C 2546.83,1776.03 2550.66,1778.53 2557.5,1776C 2559.02,1774.31 2560.68,1772.81 2562.5,1771.5C 2564.6,1772.59 2565.93,1774.26 2566.5,1776.5C 2562.39,1790.48 2553.39,1795.65 2539.5,1792C 2533.59,1787.68 2530.09,1781.85 2529,1774.5C 2517.29,1789.96 2502.12,1795.46 2483.5,1791C 2479.87,1787.24 2477.7,1782.74 2477,1777.5C 2474.14,1760.06 2480.3,1746.89 2495.5,1738C 2506.58,1732.72 2517.08,1726.55 2527,1719.5C 2527.77,1709.13 2527.43,1698.8 2526,1688.5C 2523.77,1684.13 2520.27,1681.3 2515.5,1680C 2507.36,1678.33 2500.19,1680.16 2494,1685.5C 2493.14,1692.5 2492.47,1699.5 2492,1706.5C 2489.22,1712.81 2484.39,1715.31 2477.5,1714C 2476.3,1713.1 2475.47,1711.93 2475,1710.5C 2473.52,1701.93 2475.52,1694.26 2481,1687.5C 2489.31,1677.98 2499.48,1671.65 2511.5,1668.5 Z"/></g>
<g><path style="opacity:1" fill="#0b70ac" d="M 2777.5,1668.5 C 2792.81,1665.95 2805.65,1670.28 2816,1681.5C 2820.83,1687.91 2820.67,1694.08 2815.5,1700C 2809.08,1702.9 2803.91,1701.4 2800,1695.5C 2797.3,1688.27 2792.8,1682.44 2786.5,1678C 2777.76,1676.41 2770.42,1678.91 2764.5,1685.5C 2756.56,1694.98 2752.56,1705.98 2752.5,1718.5C 2752.99,1736.13 2757.82,1752.47 2767,1767.5C 2775.68,1777.41 2786.52,1780.91 2799.5,1778C 2806.98,1776.02 2813.31,1772.18 2818.5,1766.5C 2820.6,1767.59 2821.93,1769.26 2822.5,1771.5C 2812.64,1786.02 2798.8,1793.35 2781,1793.5C 2768.17,1793.09 2757.51,1788.09 2749,1778.5C 2735.22,1757.99 2731.55,1735.65 2738,1711.5C 2743.92,1690.21 2757.08,1675.88 2777.5,1668.5 Z"/></g>
<g><path style="opacity:1" fill="#0c70ac" d="M 2860.5,1668.5 C 2885.13,1665.73 2900.3,1676.4 2906,1700.5C 2906.67,1704.83 2906.67,1709.17 2906,1713.5C 2884.24,1714.49 2862.41,1714.83 2840.5,1714.5C 2838.24,1731.15 2841.07,1746.81 2849,1761.5C 2860.56,1777.77 2875.06,1780.94 2892.5,1771C 2897.28,1766.53 2901.45,1761.7 2905,1756.5C 2909.73,1757.68 2910.73,1760.34 2908,1764.5C 2893.74,1793.25 2872.24,1800.42 2843.5,1786C 2831.45,1774.41 2824.29,1760.24 2822,1743.5C 2818.85,1722.4 2823.18,1703.07 2835,1685.5C 2841.84,1677.12 2850.34,1671.46 2860.5,1668.5 Z"/></g>
<g><path style="opacity:1" fill="#0c70ac" d="M 3024.5,1668.5 C 3038.24,1666.48 3050.41,1669.81 3061,1678.5C 3066.57,1684.43 3067.74,1691.1 3064.5,1698.5C 3057.76,1703.13 3051.93,1702.13 3047,1695.5C 3044.92,1691.01 3042.59,1686.67 3040,1682.5C 3034.31,1677.31 3027.81,1676.14 3020.5,1679C 3005.7,1688.76 2999.04,1702.59 3000.5,1720.5C 3000.33,1733.83 3003.16,1746.49 3009,1758.5C 3017.48,1776.23 3031.32,1782.4 3050.5,1777C 3056.26,1774.37 3061.42,1770.87 3066,1766.5C 3068.35,1767.36 3069.85,1769.02 3070.5,1771.5C 3056.91,1789.65 3038.91,1796.48 3016.5,1792C 2999.26,1784.75 2988.43,1771.91 2984,1753.5C 2977.78,1723.51 2985.61,1698.01 3007.5,1677C 3012.98,1673.59 3018.65,1670.76 3024.5,1668.5 Z"/></g>
<g><path style="opacity:1" fill="#0d70ac" d="M 3106.5,1668.5 C 3113.59,1668.12 3120.59,1668.62 3127.5,1670C 3133,1672.83 3137.17,1677 3140,1682.5C 3141.01,1712.16 3142.01,1741.83 3143,1771.5C 3144.56,1777.44 3148.06,1778.94 3153.5,1776C 3155.02,1774.31 3156.68,1772.81 3158.5,1771.5C 3160.6,1772.59 3161.93,1774.26 3162.5,1776.5C 3158.14,1791.18 3148.81,1796.01 3134.5,1791C 3129.66,1786.49 3126.49,1780.99 3125,1774.5C 3114.52,1788.16 3100.68,1794.32 3083.5,1793C 3079.33,1791.5 3076.5,1788.67 3075,1784.5C 3068.45,1766.16 3072.95,1751.33 3088.5,1740C 3100.41,1733.8 3111.91,1726.96 3123,1719.5C 3123.8,1709.13 3123.47,1698.79 3122,1688.5C 3120.18,1683.66 3116.68,1680.83 3111.5,1680C 3103.31,1678.1 3096.14,1679.94 3090,1685.5C 3089.04,1687.2 3088.54,1689.03 3088.5,1691C 3090.83,1698.81 3089.49,1705.81 3084.5,1712C 3081.12,1714.24 3077.45,1714.91 3073.5,1714C 3072.3,1713.1 3071.47,1711.93 3071,1710.5C 3069.52,1701.93 3071.52,1694.26 3077,1687.5C 3085.23,1678.48 3095.06,1672.15 3106.5,1668.5 Z"/></g>
<g><path style="opacity:1" fill="#0c70ac" d="M 3287.5,1668.5 C 3288.82,1668.33 3289.99,1668.66 3291,1669.5C 3291.44,1675.89 3292.27,1682.22 3293.5,1688.5C 3300.2,1679.32 3308.86,1672.82 3319.5,1669C 3341.76,1666.05 3355.26,1675.55 3360,1697.5C 3360.33,1724.5 3360.67,1751.5 3361,1778.5C 3361.5,1779 3362,1779.5 3362.5,1780C 3366.82,1780.5 3371.15,1780.67 3375.5,1780.5C 3375.5,1783.83 3375.5,1787.17 3375.5,1790.5C 3359.5,1790.5 3343.5,1790.5 3327.5,1790.5C 3327.5,1787.17 3327.5,1783.83 3327.5,1780.5C 3331.51,1780.67 3335.51,1780.5 3339.5,1780C 3340.7,1779.1 3341.53,1777.93 3342,1776.5C 3342.67,1751.17 3342.67,1725.83 3342,1700.5C 3340.93,1690.54 3335.43,1684.7 3325.5,1683C 3309.59,1681.38 3299.09,1688.21 3294,1703.5C 3293.33,1728.17 3293.33,1752.83 3294,1777.5C 3294.37,1778.42 3294.87,1779.25 3295.5,1780C 3299.17,1780.33 3302.83,1780.67 3306.5,1781C 3307.45,1784.06 3307.78,1787.22 3307.5,1790.5C 3292.17,1790.5 3276.83,1790.5 3261.5,1790.5C 3261.22,1787.22 3261.55,1784.06 3262.5,1781C 3266.17,1780.67 3269.83,1780.33 3273.5,1780C 3274,1779.5 3274.5,1779 3275,1778.5C 3275.67,1753.17 3275.67,1727.83 3275,1702.5C 3272.57,1696.95 3268.57,1692.95 3263,1690.5C 3262.19,1688.42 3262.36,1686.42 3263.5,1684.5C 3271.57,1679.14 3279.57,1673.81 3287.5,1668.5 Z"/></g>
<g><path style="opacity:1" fill="#0c70ac" d="M 3463.5,1668.5 C 3470.59,1668.12 3477.59,1668.62 3484.5,1670C 3490.33,1672.5 3494.5,1676.67 3497,1682.5C 3498.29,1711.13 3498.96,1739.79 3499,1768.5C 3502.4,1779.49 3507.9,1780.49 3515.5,1771.5C 3517.6,1772.59 3518.93,1774.26 3519.5,1776.5C 3515.14,1791.18 3505.81,1796.01 3491.5,1791C 3486.66,1786.5 3483.5,1781 3482,1774.5C 3471.54,1788.15 3457.7,1794.31 3440.5,1793C 3436.67,1791.17 3433.83,1788.33 3432,1784.5C 3425.65,1766.23 3430.15,1751.4 3445.5,1740C 3457.41,1733.8 3468.91,1726.96 3480,1719.5C 3480.8,1709.13 3480.47,1698.79 3479,1688.5C 3477.18,1683.66 3473.68,1680.83 3468.5,1680C 3460.31,1678.1 3453.14,1679.94 3447,1685.5C 3446.08,1687.03 3445.58,1688.7 3445.5,1690.5C 3446.48,1695.14 3446.65,1699.81 3446,1704.5C 3443.59,1712.12 3438.43,1715.29 3430.5,1714C 3429.3,1713.1 3428.47,1711.93 3428,1710.5C 3426.49,1701.38 3428.82,1693.38 3435,1686.5C 3443.07,1678.06 3452.57,1672.06 3463.5,1668.5 Z"/></g>
<g><path style="opacity:1" fill="#0c70ac" d="M 3788.5,1668.5 C 3799.3,1667.35 3809.3,1669.52 3818.5,1675C 3824.81,1680.11 3827.97,1686.61 3828,1694.5C 3825.78,1700.25 3821.61,1702.42 3815.5,1701C 3813.41,1700.21 3811.58,1699.04 3810,1697.5C 3807.04,1691.07 3803.2,1685.23 3798.5,1680C 3788.18,1675.77 3779.35,1677.93 3772,1686.5C 3762.25,1701.47 3759.25,1717.81 3763,1735.5C 3765.24,1746.55 3769.24,1756.89 3775,1766.5C 3786.7,1779.21 3800.53,1782.04 3816.5,1775C 3820.01,1772.15 3823.51,1769.32 3827,1766.5C 3830.51,1767.66 3831.84,1769.99 3831,1773.5C 3814.46,1793.01 3794.29,1798.17 3770.5,1789C 3752.09,1775.67 3743.09,1757.51 3743.5,1734.5C 3743.43,1712.16 3751.43,1693.33 3767.5,1678C 3773.86,1673.15 3780.86,1669.98 3788.5,1668.5 Z"/></g>
<g><path style="opacity:1" fill="#0d70ac" d="M 3874.5,1668.5 C 3902.45,1667.94 3920.95,1680.94 3930,1707.5C 3937.39,1733.57 3932.39,1756.9 3915,1777.5C 3891.28,1799.1 3867.95,1798.77 3845,1776.5C 3830.96,1757.28 3826.63,1735.94 3832,1712.5C 3838.62,1690.38 3852.79,1675.71 3874.5,1668.5 Z"/></g>
<g><path style="opacity:1" fill="#0c70ac" d="M 4269.5,1668.5 C 4276.59,1668.12 4283.59,1668.62 4290.5,1670C 4296.67,1672.17 4300.83,1676.33 4303,1682.5C 4304.02,1711.81 4305.02,1741.15 4306,1770.5C 4306.62,1775.8 4309.45,1777.97 4314.5,1777C 4317.6,1776.06 4319.93,1774.22 4321.5,1771.5C 4323.6,1772.59 4324.93,1774.26 4325.5,1776.5C 4321.17,1791.16 4311.84,1796 4297.5,1791C 4292.93,1786.69 4289.76,1781.52 4288,1775.5C 4277.1,1788.37 4263.26,1794.2 4246.5,1793C 4240.37,1789.24 4236.87,1783.74 4236,1776.5C 4233.43,1761.53 4238.26,1749.7 4250.5,1741C 4262.58,1734.21 4274.42,1727.04 4286,1719.5C 4286.9,1708.77 4286.57,1698.11 4285,1687.5C 4282.64,1683.4 4279.14,1680.9 4274.5,1680C 4266.31,1678.1 4259.14,1679.94 4253,1685.5C 4252.08,1687.03 4251.58,1688.7 4251.5,1690.5C 4253.11,1697.02 4252.61,1703.35 4250,1709.5C 4246.89,1713.94 4242.72,1715.44 4237.5,1714C 4235.74,1712.99 4234.57,1711.49 4234,1709.5C 4233.88,1694.59 4240.38,1683.43 4253.5,1676C 4258.77,1673.19 4264.11,1670.69 4269.5,1668.5 Z"/></g>
<g><path style="opacity:1" fill="#1171ad" d="M 3238.5,1668.5 C 3239.83,1668.5 3241.17,1668.5 3242.5,1668.5C 3242.33,1704.83 3242.5,1741.17 3243,1777.5C 3243.37,1778.42 3243.87,1779.25 3244.5,1780C 3249.49,1780.5 3254.49,1780.67 3259.5,1780.5C 3259.5,1783.83 3259.5,1787.17 3259.5,1790.5C 3241.83,1790.5 3224.17,1790.5 3206.5,1790.5C 3206.5,1787.17 3206.5,1783.83 3206.5,1780.5C 3211.84,1780.67 3217.18,1780.5 3222.5,1780C 3223.19,1778.93 3223.69,1777.77 3224,1776.5C 3224.67,1750.83 3224.67,1725.17 3224,1699.5C 3220.94,1693.79 3216.11,1690.63 3209.5,1690C 3208.45,1688.61 3208.28,1687.11 3209,1685.5C 3219.14,1680.19 3228.97,1674.52 3238.5,1668.5 Z"/></g>
<g><path style="opacity:1" fill="#4092c0" d="M 4021.5,1664.5 C 4021.5,1666.83 4021.5,1669.17 4021.5,1671.5C 4038.83,1671.5 4056.17,1671.5 4073.5,1671.5C 4056.01,1672.5 4038.34,1672.83 4020.5,1672.5C 4020.19,1669.61 4020.53,1666.95 4021.5,1664.5 Z"/></g>
<g><path style="opacity:1" fill="#fcfdfd" d="M 1778.5,1676.5 C 1791.81,1675.97 1799.64,1682.3 1802,1695.5C 1804.23,1711.58 1801.89,1726.91 1795,1741.5C 1785.41,1752.11 1775.74,1752.11 1766,1741.5C 1760.89,1733.07 1758.72,1723.9 1759.5,1714C 1758.11,1697.28 1764.44,1684.78 1778.5,1676.5 Z"/></g>
<g><path style="opacity:1" fill="#fcfdfd" d="M 3556.5,1676.5 C 3568.46,1675.56 3575.96,1680.9 3579,1692.5C 3581.75,1707.86 3580.42,1722.86 3575,1737.5C 3569.11,1749.7 3560.28,1752.54 3548.5,1746C 3540.09,1737.43 3536.42,1727.1 3537.5,1715C 3535.78,1697.94 3542.11,1685.11 3556.5,1676.5 Z"/></g>
<g><path style="opacity:1" fill="#fdfefe" d="M 1432.5,1677.5 C 1442.83,1676.25 1451.33,1679.58 1458,1687.5C 1471.81,1707.27 1475.47,1728.94 1469,1752.5C 1466.94,1761.28 1463.28,1769.28 1458,1776.5C 1448.46,1785.8 1437.96,1786.97 1426.5,1780C 1417.18,1771.18 1411.68,1760.35 1410,1747.5C 1409.07,1733.78 1409.41,1720.11 1411,1706.5C 1414.27,1693.76 1421.44,1684.09 1432.5,1677.5 Z"/></g>
<g><path style="opacity:1" fill="#fdfefe" d="M 1988.5,1677.5 C 1998.83,1676.25 2007.33,1679.58 2014,1687.5C 2025.17,1702.66 2029.5,1719.66 2027,1738.5C 2026.04,1752.38 2021.71,1765.05 2014,1776.5C 2000.43,1787.96 1987.77,1786.96 1976,1773.5C 1970.99,1765.49 1967.66,1756.82 1966,1747.5C 1965.14,1733.8 1965.47,1720.13 1967,1706.5C 1970.33,1693.79 1977.49,1684.12 1988.5,1677.5 Z"/></g>
<g><path style="opacity:1" fill="#fbfdfd" d="M 2274.5,1705.5 C 2260.99,1705.83 2247.66,1705.5 2234.5,1704.5C 2236.18,1694.64 2240.85,1686.47 2248.5,1680C 2255.14,1676.72 2261.81,1676.72 2268.5,1680C 2274.77,1686.61 2277.61,1694.44 2277,1703.5C 2276.29,1704.38 2275.46,1705.05 2274.5,1705.5 Z"/></g>
<g><path style="opacity:1" fill="#fcfdfd" d="M 2881.5,1705.5 C 2868.32,1705.83 2855.32,1705.5 2842.5,1704.5C 2844.18,1694.64 2848.85,1686.47 2856.5,1680C 2862.33,1677.08 2868.33,1676.74 2874.5,1679C 2882.45,1685.18 2885.95,1693.34 2885,1703.5C 2884.18,1704.82 2883.02,1705.49 2881.5,1705.5 Z"/></g>
<g><path style="opacity:1" fill="#fdfefe" d="M 3873.5,1677.5 C 3878.6,1677.17 3883.6,1677.67 3888.5,1679C 3902.04,1688.22 3909.87,1701.05 3912,1717.5C 3914.47,1738.27 3910.47,1757.61 3900,1775.5C 3892.6,1784.3 3883.43,1786.8 3872.5,1783C 3863.61,1777.41 3857.44,1769.58 3854,1759.5C 3852.84,1755.2 3851.84,1750.87 3851,1746.5C 3850.33,1734.83 3850.33,1723.17 3851,1711.5C 3853.65,1696.73 3861.15,1685.4 3873.5,1677.5 Z"/></g>
<g><path style="opacity:1" fill="#fdfefe" d="M 2153.5,1681.5 C 2169.57,1682.06 2180.07,1690.06 2185,1705.5C 2188.37,1720.65 2189.37,1735.98 2188,1751.5C 2183.84,1781.32 2168.01,1790.49 2140.5,1779C 2136.96,1777.09 2134.46,1774.26 2133,1770.5C 2132.33,1746.5 2132.33,1722.5 2133,1698.5C 2137.64,1690.01 2144.47,1684.35 2153.5,1681.5 Z"/></g>
<g><path style="opacity:1" fill="#7bb4d3" d="M 2234.5,1704.5 C 2247.66,1705.5 2260.99,1705.83 2274.5,1705.5C 2260.99,1706.83 2247.33,1706.83 2233.5,1705.5C 2233.62,1704.89 2233.96,1704.56 2234.5,1704.5 Z"/></g>
<g><path style="opacity:1" fill="#7db5d4" d="M 2842.5,1704.5 C 2855.32,1705.5 2868.32,1705.83 2881.5,1705.5C 2868.33,1706.83 2854.99,1706.83 2841.5,1705.5C 2841.62,1704.89 2841.96,1704.56 2842.5,1704.5 Z"/></g>
<g><path style="opacity:1" fill="#bfdbe8" d="M 2295.5,1714.5 C 2274.6,1715.18 2253.6,1715.84 2232.5,1716.5C 2253.14,1714.51 2274.14,1713.84 2295.5,1714.5 Z"/></g>
<g><path style="opacity:1" fill="#bcd9e8" d="M 2525.5,1729.5 C 2525.56,1728.96 2525.89,1728.62 2526.5,1728.5C 2527.82,1740.66 2527.82,1752.66 2526.5,1764.5C 2526.83,1752.65 2526.49,1740.99 2525.5,1729.5 Z"/></g>
<g><path style="opacity:1" fill="#fcfdfd" d="M 2525.5,1729.5 C 2526.49,1740.99 2526.83,1752.65 2526.5,1764.5C 2522.12,1775.2 2514.12,1780.03 2502.5,1779C 2497.11,1775.53 2494.78,1770.53 2495.5,1764C 2495.45,1756.48 2497.95,1749.98 2503,1744.5C 2509.93,1738.62 2517.43,1733.62 2525.5,1729.5 Z"/></g>
<g><path style="opacity:1" fill="#fcfdfd" d="M 3122.5,1728.5 C 3123.17,1734.32 3123.5,1740.32 3123.5,1746.5C 3127.02,1760.5 3122.68,1771 3110.5,1778C 3101.53,1781.96 3095.36,1779.46 3092,1770.5C 3089.93,1757.81 3094.1,1747.64 3104.5,1740C 3110.73,1736.39 3116.73,1732.56 3122.5,1728.5 Z"/></g>
<g><path style="opacity:1" fill="#fcfdfd" d="M 3479.5,1728.5 C 3480.66,1740.66 3480.83,1752.99 3480,1765.5C 3474.72,1775.39 3466.56,1779.89 3455.5,1779C 3448.46,1772.12 3446.62,1763.95 3450,1754.5C 3452.69,1748.8 3456.52,1743.97 3461.5,1740C 3467.73,1736.39 3473.73,1732.56 3479.5,1728.5 Z"/></g>
<g><path style="opacity:1" fill="#fcfdfd" d="M 4285.5,1728.5 C 4286.66,1740.66 4286.83,1752.99 4286,1765.5C 4281.04,1775.15 4273.2,1779.65 4262.5,1779C 4256.03,1774.54 4253.53,1768.37 4255,1760.5C 4256.47,1752.07 4260.63,1745.24 4267.5,1740C 4273.73,1736.39 4279.73,1732.56 4285.5,1728.5 Z"/></g>
<g><path style="opacity:1" fill="#4091c0" d="M 2133.5,1789.5 C 2132.5,1809.99 2132.17,1830.66 2132.5,1851.5C 2131.17,1830.66 2131.17,1809.66 2132.5,1788.5C 2133.11,1788.62 2133.44,1788.96 2133.5,1789.5 Z"/></g>
<g><path style="opacity:1" fill="#fdfefe" d="M 1781.5,1801.5 C 1789.17,1801.33 1796.84,1801.5 1804.5,1802C 1821.44,1807.4 1827.94,1818.9 1824,1836.5C 1822.76,1841.74 1819.93,1845.91 1815.5,1849C 1801.22,1857.58 1785.88,1859.91 1769.5,1856C 1753.63,1850.43 1746.79,1839.26 1749,1822.5C 1754.76,1807.56 1765.59,1800.56 1781.5,1801.5 Z"/></g>
<g><path style="opacity:1" fill="#fdfefe" d="M 3559.5,1801.5 C 3567.17,1801.33 3574.84,1801.5 3582.5,1802C 3601.19,1809.22 3607.02,1822.39 3600,1841.5C 3590.72,1853.11 3578.55,1858.44 3563.5,1857.5C 3551.2,1858.62 3540.7,1854.96 3532,1846.5C 3521.59,1828.4 3525.42,1814.24 3543.5,1804C 3549,1803.34 3554.34,1802.51 3559.5,1801.5 Z"/></g>
<g><path style="opacity:1" fill="#98b875" d="M 774.5,1815.5 C 774.974,1836.33 775.641,1857 776.5,1877.5C 769.7,1898.06 762.2,1918.4 754,1938.5C 720.329,2008.91 677.495,2072.91 625.5,2130.5C 606.005,2117.25 586.338,2104.25 566.5,2091.5C 593.16,2064.67 619.66,2037.67 646,2010.5C 662.377,1992.72 678.044,1974.39 693,1955.5C 727.008,1912.95 754.175,1866.28 774.5,1815.5 Z"/></g>
<g><path style="opacity:1" fill="#096fac" d="M 1470.5,1888.5 C 1471.83,1888.5 1473.17,1888.5 1474.5,1888.5C 1474.33,1952.17 1474.5,2015.83 1475,2079.5C 1475.11,2081.85 1476.28,2083.35 1478.5,2084C 1483.5,2084.33 1488.5,2084.67 1493.5,2085C 1494.61,2087.74 1494.78,2090.57 1494,2093.5C 1474.91,2093.17 1455.75,2093.51 1436.5,2094.5C 1436.5,2091.17 1436.5,2087.83 1436.5,2084.5C 1441.84,2084.67 1447.18,2084.5 1452.5,2084C 1454.26,2082.99 1455.43,2081.49 1456,2079.5C 1456.17,2054.67 1456.33,2029.83 1456.5,2005C 1456.64,1978.46 1456.14,1951.96 1455,1925.5C 1453.62,1923.25 1452.12,1921.08 1450.5,1919C 1446.54,1917.01 1442.54,1915.01 1438.5,1913C 1437.17,1911.33 1437.17,1909.67 1438.5,1908C 1450.06,1902.73 1460.73,1896.23 1470.5,1888.5 Z"/></g>
<g><path style="opacity:1" fill="#0d70ac" d="M 1510.5,1888.5 C 1521.87,1888.78 1529.04,1894.44 1532,1905.5C 1533.96,1930.58 1524.46,1949.92 1503.5,1963.5C 1500.75,1962.9 1499.92,1961.24 1501,1958.5C 1510.75,1949.67 1516.25,1938.67 1517.5,1925.5C 1517.25,1919.75 1514.25,1916.25 1508.5,1915C 1501.27,1909.01 1499.77,1901.84 1504,1893.5C 1505.97,1891.45 1508.13,1889.78 1510.5,1888.5 Z"/></g>
<g><path style="opacity:1" fill="#0e70ac" d="M 1904.5,1888.5 C 1905.82,1888.33 1906.99,1888.66 1908,1889.5C 1908.17,1896 1908.33,1902.5 1908.5,1909C 1907.42,1965.5 1907.25,2022 1908,2078.5C 1908.35,2080.85 1909.51,2082.68 1911.5,2084C 1916.82,2084.5 1922.16,2084.67 1927.5,2084.5C 1927.5,2087.83 1927.5,2091.17 1927.5,2094.5C 1909.5,2093.21 1891.5,2093.21 1873.5,2094.5C 1870.11,2094.6 1868.78,2092.94 1869.5,2089.5C 1869.55,2087.9 1869.88,2086.4 1870.5,2085C 1875.83,2084.67 1881.17,2084.33 1886.5,2084C 1887.7,2083.1 1888.53,2081.93 1889,2080.5C 1889.67,2029.83 1889.67,1979.17 1889,1928.5C 1886.35,1919.85 1880.51,1914.68 1871.5,1913C 1870.25,1911.51 1870.25,1910.01 1871.5,1908.5C 1883.4,1903.06 1894.4,1896.4 1904.5,1888.5 Z"/></g>
<g><path style="opacity:1" fill="#0e70ac" d="M 2357.5,1888.5 C 2358.83,1888.5 2360.17,1888.5 2361.5,1888.5C 2361.33,1947.83 2361.5,2007.17 2362,2066.5C 2362.02,2071.37 2364.18,2074.87 2368.5,2077C 2371.82,2077.88 2375.15,2078.71 2378.5,2079.5C 2379.48,2081.1 2379.65,2082.76 2379,2084.5C 2369.49,2089.17 2359.66,2093.17 2349.5,2096.5C 2348.35,2096.18 2347.52,2095.52 2347,2094.5C 2346,2090.5 2345,2086.5 2344,2082.5C 2327.93,2097.26 2309.77,2100.76 2289.5,2093C 2268.12,2074.71 2260.28,2051.55 2266,2023.5C 2269.47,2005.04 2278.64,1990.21 2293.5,1979C 2304.72,1972.78 2316.72,1970.78 2329.5,1973C 2334.29,1973.16 2338.79,1974.32 2343,1976.5C 2343.67,1955.5 2343.67,1934.5 2343,1913.5C 2342.29,1911.92 2341.46,1910.42 2340.5,1909C 2336.4,1906.8 2332.07,1905.3 2327.5,1904.5C 2326.35,1901.89 2326.18,1899.23 2327,1896.5C 2337.3,1894.01 2347.47,1891.34 2357.5,1888.5 Z"/></g>
<g><path style="opacity:1" fill="#046eab" d="M 2518.5,1888.5 C 2519.82,1888.33 2520.99,1888.66 2522,1889.5C 2521.61,1951.83 2521.61,2014.16 2522,2076.5C 2522.23,2079.46 2523.4,2081.96 2525.5,2084C 2530.82,2084.5 2536.16,2084.67 2541.5,2084.5C 2541.5,2087.83 2541.5,2091.17 2541.5,2094.5C 2524.33,2093.5 2507.16,2093.5 2490,2094.5C 2485.44,2095.61 2483.27,2093.95 2483.5,2089.5C 2483.55,2087.9 2483.88,2086.4 2484.5,2085C 2489.83,2084.67 2495.17,2084.33 2500.5,2084C 2502.49,2082.68 2503.65,2080.85 2504,2078.5C 2504.92,2028.15 2504.59,1977.82 2503,1927.5C 2500.18,1919.85 2494.68,1915.19 2486.5,1913.5C 2485.24,1911.65 2485.24,1909.81 2486.5,1908C 2498.06,1902.73 2508.73,1896.23 2518.5,1888.5 Z"/></g>
<g><path style="opacity:1" fill="#0e70ac" d="M 2578.5,1888.5 C 2579.83,1888.5 2581.17,1888.5 2582.5,1888.5C 2582.33,1952.17 2582.5,2015.83 2583,2079.5C 2583.11,2081.85 2584.28,2083.35 2586.5,2084C 2591.5,2084.33 2596.5,2084.67 2601.5,2085C 2602.6,2087.4 2602.77,2089.9 2602,2092.5C 2601.16,2093.62 2599.99,2094.29 2598.5,2094.5C 2580.5,2093.23 2562.5,2093.23 2544.5,2094.5C 2544.5,2091.17 2544.5,2087.83 2544.5,2084.5C 2549.84,2084.67 2555.18,2084.5 2560.5,2084C 2562.05,2082.79 2563.22,2081.29 2564,2079.5C 2564.17,2055.83 2564.33,2032.17 2564.5,2008.5C 2564.61,1981.15 2564.11,1953.81 2563,1926.5C 2561.88,1923.75 2560.38,1921.25 2558.5,1919C 2554.62,1916.89 2550.62,1915.06 2546.5,1913.5C 2545.24,1911.65 2545.24,1909.81 2546.5,1908C 2558.06,1902.73 2568.73,1896.23 2578.5,1888.5 Z"/></g>
<g><path style="opacity:1" fill="#0b70ac" d="M 2618.5,1888.5 C 2629.3,1889.46 2636.47,1895.12 2640,1905.5C 2641.49,1927.36 2633.99,1945.53 2617.5,1960C 2615.56,1961.56 2613.39,1962.72 2611,1963.5C 2608.68,1962.59 2608.01,1960.92 2609,1958.5C 2618.1,1949.48 2623.6,1938.64 2625.5,1926C 2625.36,1920.08 2622.36,1916.41 2616.5,1915C 2610.56,1910.19 2608.4,1904.02 2610,1896.5C 2612.07,1892.92 2614.91,1890.26 2618.5,1888.5 Z"/></g>
<g><path style="opacity:1" fill="#0e70ac" d="M 1949.5,1910.5 C 1966.23,1909.94 1971.73,1917.61 1966,1933.5C 1959,1941.04 1951.67,1941.37 1944,1934.5C 1938.06,1924.66 1939.89,1916.66 1949.5,1910.5 Z"/></g>
<g><path style="opacity:1" fill="#0d70ac" d="M 2096.5,1910.5 C 2110.08,1908.92 2116.25,1914.92 2115,1928.5C 2111.06,1939.55 2103.9,1942.39 2093.5,1937C 2084.9,1927.05 2085.9,1918.21 2096.5,1910.5 Z"/></g>
<g><path style="opacity:1" fill="#0d70ac" d="M 3422.5,1910.5 C 3435.1,1908.61 3441.27,1913.94 3441,1926.5C 3438.32,1937.76 3431.49,1941.59 3420.5,1938C 3410.65,1928.01 3411.31,1918.84 3422.5,1910.5 Z"/></g>
<g><path style="opacity:1" fill="#0a70ac" d="M 4184.5,1910.5 C 4199.95,1909.45 4205.78,1916.45 4202,1931.5C 4197,1939.88 4190.17,1941.71 4181.5,1937C 4176.75,1931.73 4175.25,1925.56 4177,1918.5C 4179.03,1915.31 4181.53,1912.64 4184.5,1910.5 Z"/></g>
<g><path style="opacity:1" fill="#056fab" d="M 3965.5,1970.5 C 3970.95,1969.78 3975.78,1971.11 3980,1974.5C 3984.22,1982.93 3982.72,1990.09 3975.5,1996C 3970.39,1997.11 3965.72,1996.11 3961.5,1993C 3954.24,1991.55 3948.74,1994.05 3945,2000.5C 3943.11,2003.62 3941.77,2006.95 3941,2010.5C 3940.33,2033.5 3940.33,2056.5 3941,2079.5C 3941.78,2081.29 3942.95,2082.79 3944.5,2084C 3949.82,2084.5 3955.16,2084.67 3960.5,2084.5C 3960.5,2087.83 3960.5,2091.17 3960.5,2094.5C 3942.17,2093.17 3923.83,2093.17 3905.5,2094.5C 3905.5,2091.17 3905.5,2087.83 3905.5,2084.5C 3910.51,2084.67 3915.51,2084.5 3920.5,2084C 3921.7,2083.1 3922.53,2081.93 3923,2080.5C 3923.67,2057.17 3923.67,2033.83 3923,2010.5C 3921.64,2002.14 3916.98,1996.47 3909,1993.5C 3908.33,1991.83 3908.33,1990.17 3909,1988.5C 3917.79,1982.52 3926.96,1977.19 3936.5,1972.5C 3937.44,1972.61 3938.28,1972.94 3939,1973.5C 3939.04,1980.67 3939.7,1987.67 3941,1994.5C 3944.47,1989.07 3948.3,1983.9 3952.5,1979C 3956.59,1975.63 3960.92,1972.8 3965.5,1970.5 Z"/></g>
<g><path style="opacity:1" fill="#0e70ac" d="M 4146.5,1970.5 C 4157.05,1968.73 4163.05,1973.07 4164.5,1983.5C 4162.2,1996.96 4155.2,2000.13 4143.5,1993C 4136.2,1991.57 4130.7,1994.07 4127,2000.5C 4124.82,2003.87 4123.48,2007.53 4123,2011.5C 4122.04,2034.88 4122.37,2058.22 4124,2081.5C 4124.83,2082.33 4125.67,2083.17 4126.5,2084C 4131.82,2084.5 4137.16,2084.67 4142.5,2084.5C 4142.5,2087.83 4142.5,2091.17 4142.5,2094.5C 4124.17,2093.17 4105.83,2093.17 4087.5,2094.5C 4087.5,2091.17 4087.5,2087.83 4087.5,2084.5C 4092.51,2084.67 4097.51,2084.5 4102.5,2084C 4103,2083.5 4103.5,2083 4104,2082.5C 4104.67,2056.83 4104.67,2031.17 4104,2005.5C 4100.89,2000.01 4096.39,1996.01 4090.5,1993.5C 4089.17,1991.83 4089.17,1990.17 4090.5,1988.5C 4099.48,1982.76 4108.65,1977.43 4118,1972.5C 4119.11,1972.59 4120.11,1972.92 4121,1973.5C 4121.11,1980.58 4121.78,1987.58 4123,1994.5C 4128.36,1983.98 4136.19,1975.98 4146.5,1970.5 Z"/></g>
<g><path style="opacity:1" fill="#096fac" d="M 1259.5,1972.5 C 1284.25,1968.96 1299.75,1979.29 1306,2003.5C 1307,2007.47 1307.33,2011.47 1307,2015.5C 1306.5,2016.67 1305.67,2017.5 1304.5,2018C 1283.17,2018.5 1261.84,2018.67 1240.5,2018.5C 1238.49,2035.61 1241.66,2051.61 1250,2066.5C 1262.15,2082.18 1276.65,2084.68 1293.5,2074C 1297.87,2069.4 1301.87,2064.57 1305.5,2059.5C 1309.81,2061.47 1310.65,2064.47 1308,2068.5C 1295.27,2095.45 1275.11,2103.28 1247.5,2092C 1233.04,2081.6 1224.88,2067.43 1223,2049.5C 1218.48,2025.23 1223.82,2003.57 1239,1984.5C 1244.77,1978.54 1251.61,1974.54 1259.5,1972.5 Z"/></g>
<g><path style="opacity:1" fill="#1171ad" d="M 1583.5,1972.5 C 1590.17,1972.33 1596.84,1972.5 1603.5,1973C 1610.33,1975.83 1615.17,1980.67 1618,1987.5C 1619.27,2016.47 1619.93,2045.47 1620,2074.5C 1621.5,2080.06 1625,2081.89 1630.5,2080C 1632.64,2078.85 1634.48,2077.35 1636,2075.5C 1638.17,2076.33 1639.67,2077.83 1640.5,2080C 1636.03,2094.56 1626.7,2099.56 1612.5,2095C 1607.14,2090.78 1603.97,2085.28 1603,2078.5C 1592.19,2091.66 1578.36,2097.83 1561.5,2097C 1556.85,2094.89 1553.69,2091.39 1552,2086.5C 1546.65,2067.53 1552.15,2052.7 1568.5,2042C 1579.66,2036.59 1590.32,2030.42 1600.5,2023.5C 1601.83,2013.47 1601.67,2003.47 1600,1993.5C 1597.99,1987.56 1593.82,1984.06 1587.5,1983C 1580.18,1981.96 1573.68,1983.79 1568,1988.5C 1566.74,1995.39 1566.07,2002.39 1566,2009.5C 1563.24,2016.63 1558.08,2019.13 1550.5,2017C 1548.49,2012.39 1547.99,2007.56 1549,2002.5C 1552.24,1992.6 1558.4,1985.1 1567.5,1980C 1572.61,1976.81 1577.95,1974.31 1583.5,1972.5 Z"/></g>
<g><path style="opacity:1" fill="#0970ac" d="M 1673.5,1972.5 C 1675.14,1972.29 1676.64,1972.62 1678,1973.5C 1678.6,1979.84 1679.27,1986.17 1680,1992.5C 1690.12,1978.02 1703.95,1971.52 1721.5,1973C 1733.11,1975.94 1740.94,1983.1 1745,1994.5C 1745.82,1996.79 1746.49,1999.12 1747,2001.5C 1747.33,2028.17 1747.67,2054.83 1748,2081.5C 1748.37,2082.42 1748.87,2083.25 1749.5,2084C 1753.82,2084.5 1758.15,2084.67 1762.5,2084.5C 1762.5,2087.83 1762.5,2091.17 1762.5,2094.5C 1746.5,2093.17 1730.5,2093.17 1714.5,2094.5C 1714.5,2091.17 1714.5,2087.83 1714.5,2084.5C 1718.51,2084.67 1722.51,2084.5 1726.5,2084C 1727.7,2083.1 1728.53,2081.93 1729,2080.5C 1729.67,2055.17 1729.67,2029.83 1729,2004.5C 1726.86,1991.99 1719.36,1985.99 1706.5,1986.5C 1693.5,1987.33 1685,1993.99 1681,2006.5C 1680.33,2031.5 1680.33,2056.5 1681,2081.5C 1681.37,2082.42 1681.87,2083.25 1682.5,2084C 1686.49,2084.5 1690.49,2084.67 1694.5,2084.5C 1694.5,2087.83 1694.5,2091.17 1694.5,2094.5C 1679.17,2093.23 1663.84,2093.23 1648.5,2094.5C 1648.5,2091.17 1648.5,2087.83 1648.5,2084.5C 1652.51,2084.67 1656.51,2084.5 1660.5,2084C 1661,2083.5 1661.5,2083 1662,2082.5C 1662.17,2070 1662.33,2057.5 1662.5,2045C 1662.63,2031.11 1662.13,2017.28 1661,2003.5C 1658.26,1999.04 1654.43,1995.88 1649.5,1994C 1648.07,1991.73 1648.4,1989.73 1650.5,1988C 1658.34,1982.97 1666.01,1977.8 1673.5,1972.5 Z"/></g>
<g><path style="opacity:1" fill="#0e70ac" d="M 1810.5,1972.5 C 1818.25,1972.1 1825.92,1972.6 1833.5,1974C 1838.67,1976.5 1842.5,1980.33 1845,1985.5C 1846.05,2015.13 1847.05,2044.8 1848,2074.5C 1849.5,2080.06 1853,2081.89 1858.5,2080C 1860.37,2078.46 1862.2,2076.96 1864,2075.5C 1866.53,2076.2 1867.69,2077.86 1867.5,2080.5C 1864.4,2092.38 1856.73,2097.88 1844.5,2097C 1842.5,2096 1840.5,2095 1838.5,2094C 1835.02,2089.55 1832.19,2084.71 1830,2079.5C 1819.38,2092.06 1805.88,2097.89 1789.5,2097C 1784.6,2095.1 1781.43,2091.6 1780,2086.5C 1774.24,2067.43 1779.74,2052.6 1796.5,2042C 1807.66,2036.59 1818.32,2030.42 1828.5,2023.5C 1830,2012.41 1829.5,2001.41 1827,1990.5C 1816.73,1980.22 1806.07,1979.88 1795,1989.5C 1794.67,1996.5 1794.33,2003.5 1794,2010.5C 1789.88,2017.62 1784.21,2019.28 1777,2015.5C 1775.34,2000.65 1780.84,1989.15 1793.5,1981C 1798.98,1977.59 1804.65,1974.76 1810.5,1972.5 Z"/></g>
<g><path style="opacity:1" fill="#0a70ac" d="M 1964.5,1972.5 C 1966.17,1972.5 1967.83,1972.5 1969.5,1972.5C 1969.33,2008.83 1969.5,2045.17 1970,2081.5C 1970.37,2082.42 1970.87,2083.25 1971.5,2084C 1976.49,2084.5 1981.49,2084.67 1986.5,2084.5C 1986.5,2087.83 1986.5,2091.17 1986.5,2094.5C 1968.83,2093.34 1951.16,2093.34 1933.5,2094.5C 1933.5,2091.17 1933.5,2087.83 1933.5,2084.5C 1938.84,2084.67 1944.18,2084.5 1949.5,2084C 1950,2083.5 1950.5,2083 1951,2082.5C 1951.67,2056.17 1951.67,2029.83 1951,2003.5C 1948.07,1997.61 1943.24,1994.61 1936.5,1994.5C 1936.19,1992.08 1936.53,1989.74 1937.5,1987.5C 1947.34,1983.75 1956.34,1978.75 1964.5,1972.5 Z"/></g>
<g><path style="opacity:1" fill="#0c70ac" d="M 2026.5,1972.5 C 2037.43,1971.18 2047.77,1973.01 2057.5,1978C 2058.67,1979.17 2059.83,1980.33 2061,1981.5C 2063.39,1989.4 2064.23,1997.4 2063.5,2005.5C 2061.9,2006.48 2060.24,2006.65 2058.5,2006C 2053.96,1999.75 2049.79,1993.25 2046,1986.5C 2038.18,1980.53 2030.01,1980.03 2021.5,1985C 2011.93,1995.95 2012.26,2006.62 2022.5,2017C 2030.59,2020.92 2038.93,2024.25 2047.5,2027C 2062.85,2035.67 2069.02,2048.83 2066,2066.5C 2059.69,2090.58 2044.19,2100.41 2019.5,2096C 2014.04,2094.63 2009.21,2092.13 2005,2088.5C 2002.09,2077.64 2000.92,2066.64 2001.5,2055.5C 2003.2,2054.32 2004.86,2054.32 2006.5,2055.5C 2010,2063.17 2013.5,2070.83 2017,2078.5C 2023.02,2087.48 2031.19,2089.98 2041.5,2086C 2051.12,2080.59 2054.62,2072.42 2052,2061.5C 2050.38,2055.54 2046.88,2051.04 2041.5,2048C 2031.71,2044.63 2022.37,2040.29 2013.5,2035C 1999.12,2020.52 1996.95,2004.35 2007,1986.5C 2012.15,1979.7 2018.65,1975.03 2026.5,1972.5 Z"/></g>
<g><path style="opacity:1" fill="#076fac" d="M 2111.5,1972.5 C 2113.17,1972.5 2114.83,1972.5 2116.5,1972.5C 2116.33,2008.83 2116.5,2045.17 2117,2081.5C 2117.37,2082.42 2117.87,2083.25 2118.5,2084C 2123.49,2084.5 2128.49,2084.67 2133.5,2084.5C 2133.5,2087.83 2133.5,2091.17 2133.5,2094.5C 2115.83,2093.17 2098.17,2093.17 2080.5,2094.5C 2080.5,2091.17 2080.5,2087.83 2080.5,2084.5C 2085.84,2084.67 2091.18,2084.5 2096.5,2084C 2097.13,2083.25 2097.63,2082.42 2098,2081.5C 2098.67,2055.5 2098.67,2029.5 2098,2003.5C 2095.07,1997.61 2090.24,1994.61 2083.5,1994.5C 2083.19,1992.08 2083.53,1989.74 2084.5,1987.5C 2094.34,1983.75 2103.34,1978.75 2111.5,1972.5 Z"/></g>
<g><path style="opacity:1" fill="#0a70ac" d="M 2426.5,1972.5 C 2451.47,1968.64 2466.97,1978.98 2473,2003.5C 2474,2007.47 2474.33,2011.47 2474,2015.5C 2473.23,2016.85 2472.06,2017.68 2470.5,2018C 2449.5,2018.5 2428.5,2018.67 2407.5,2018.5C 2405.13,2037.53 2409.3,2054.86 2420,2070.5C 2435.85,2084.21 2451.18,2083.55 2466,2068.5C 2467.69,2065.11 2469.86,2062.11 2472.5,2059.5C 2476.81,2061.47 2477.65,2064.47 2475,2068.5C 2462.2,2095.21 2442.04,2103.04 2414.5,2092C 2400.66,2082.11 2392.49,2068.61 2390,2051.5C 2389.33,2040.17 2389.33,2028.83 2390,2017.5C 2393.75,1995.29 2405.92,1980.29 2426.5,1972.5 Z"/></g>
<g><path style="opacity:1" fill="#0c70ac" d="M 2692.5,1972.5 C 2717.73,1968.88 2733.23,1979.54 2739,2004.5C 2739.67,2008.5 2739.67,2012.5 2739,2016.5C 2738.5,2017 2738,2017.5 2737.5,2018C 2716.17,2018.5 2694.84,2018.67 2673.5,2018.5C 2672.7,2031.05 2673.87,2043.38 2677,2055.5C 2687.21,2080.74 2704.04,2086.58 2727.5,2073C 2731.47,2068.87 2734.8,2064.37 2737.5,2059.5C 2740.84,2060.32 2742.34,2062.32 2742,2065.5C 2729.36,2095.58 2708.19,2104.08 2678.5,2091C 2664.25,2079.67 2656.42,2064.84 2655,2046.5C 2651.67,2024.82 2656.34,2005.15 2669,1987.5C 2675.23,1979.81 2683.06,1974.81 2692.5,1972.5 Z"/></g>
<g><path style="opacity:1" fill="#0c70ac" d="M 2796.5,1972.5 C 2812.6,1969.22 2826.1,1973.56 2837,1985.5C 2840.07,1991.29 2840.24,1997.12 2837.5,2003C 2830.29,2007.21 2824.46,2005.71 2820,1998.5C 2817.86,1991.36 2813.69,1985.86 2807.5,1982C 2800.53,1980.54 2794.2,1981.87 2788.5,1986C 2779.06,1994.3 2774.23,2004.8 2774,2017.5C 2772.54,2037.12 2777.21,2055.12 2788,2071.5C 2798.48,2082.75 2810.98,2085.58 2825.5,2080C 2830.87,2077.46 2835.54,2073.96 2839.5,2069.5C 2841.04,2071.2 2842.37,2073.04 2843.5,2075C 2833.85,2089.08 2820.35,2096.58 2803,2097.5C 2786.23,2097.12 2773.56,2089.78 2765,2075.5C 2751.64,2047.98 2752.64,2020.98 2768,1994.5C 2771.8,1989.7 2775.97,1985.2 2780.5,1981C 2785.77,1977.87 2791.1,1975.03 2796.5,1972.5 Z"/></g>
<g><path style="opacity:1" fill="#0c70ac" d="M 2903.5,1971.5 C 2927.4,1974.21 2943.57,1986.88 2952,2009.5C 2961.3,2041.24 2953.47,2067.74 2928.5,2089C 2896,2104.35 2872.16,2095.52 2857,2062.5C 2847.54,2035.79 2851.54,2011.46 2869,1989.5C 2878.46,1979.36 2889.96,1973.36 2903.5,1971.5 Z"/></g>
<g><path style="opacity:1" fill="#0e70ac" d="M 2996.5,1972.5 C 2998.17,1972.5 2999.83,1972.5 3001.5,1972.5C 3001.74,1979.25 3002.57,1985.92 3004,1992.5C 3014.15,1977.17 3028.32,1970.67 3046.5,1973C 3059.04,1977.52 3066.87,1986.36 3070,1999.5C 3070.33,2026.83 3070.67,2054.17 3071,2081.5C 3071.83,2082.33 3072.67,2083.17 3073.5,2084C 3077.5,2084.33 3081.5,2084.67 3085.5,2085C 3086.61,2087.74 3086.78,2090.57 3086,2093.5C 3071.08,2093.23 3056.08,2093.56 3041,2094.5C 3039.89,2094.41 3038.89,2094.08 3038,2093.5C 3037.5,2090.52 3037.34,2087.52 3037.5,2084.5C 3041.51,2084.67 3045.51,2084.5 3049.5,2084C 3050.7,2083.1 3051.53,2081.93 3052,2080.5C 3052.67,2053.83 3052.67,2027.17 3052,2000.5C 3048.35,1990.84 3041.35,1986.17 3031,1986.5C 3016.97,1987.52 3007.97,1994.86 3004,2008.5C 3003.33,2032.83 3003.33,2057.17 3004,2081.5C 3004.83,2082.33 3005.67,2083.17 3006.5,2084C 3010.15,2084.5 3013.82,2084.67 3017.5,2084.5C 3017.5,2087.83 3017.5,2091.17 3017.5,2094.5C 3002.25,2093.52 2987.09,2093.18 2972,2093.5C 2971.22,2090.57 2971.39,2087.74 2972.5,2085C 2976.89,2084.98 2981.06,2084.15 2985,2082.5C 2985.67,2056.83 2985.67,2031.17 2985,2005.5C 2982.33,2000.17 2978.33,1996.17 2973,1993.5C 2972.33,1991.83 2972.33,1990.17 2973,1988.5C 2981.16,1983.51 2988.99,1978.18 2996.5,1972.5 Z"/></g>
<g><path style="opacity:1" fill="#0b70ac" d="M 3140.5,1972.5 C 3165.21,1970.43 3183.04,1980.43 3194,2002.5C 3205.4,2030.15 3202.07,2055.82 3184,2079.5C 3159.23,2103.78 3134.9,2103.45 3111,2078.5C 3099.29,2061.27 3094.95,2042.27 3098,2021.5C 3103.38,1997.34 3117.54,1981.01 3140.5,1972.5 Z"/></g>
<g><path style="opacity:1" fill="#0a6fac" d="M 3275.5,1972.5 C 3292.92,1970.29 3305.08,1977.29 3312,1993.5C 3323.12,1977.52 3338.28,1970.69 3357.5,1973C 3369.24,1978.08 3376.74,1986.92 3380,1999.5C 3381.26,2026.81 3381.93,2054.14 3382,2081.5C 3382.37,2082.42 3382.87,2083.25 3383.5,2084C 3387.49,2084.5 3391.49,2084.67 3395.5,2084.5C 3395.78,2087.78 3395.45,2090.94 3394.5,2094C 3379.5,2093.21 3364.5,2093.38 3349.5,2094.5C 3349.5,2091.17 3349.5,2087.83 3349.5,2084.5C 3353.18,2084.67 3356.85,2084.5 3360.5,2084C 3361.7,2083.1 3362.53,2081.93 3363,2080.5C 3363.67,2054.83 3363.67,2029.17 3363,2003.5C 3359.77,1991.95 3352.1,1985.95 3340,1985.5C 3324.78,1988.06 3316.44,1997.06 3315,2012.5C 3314.33,2034.83 3314.33,2057.17 3315,2079.5C 3315.27,2081.33 3316.11,2082.83 3317.5,2084C 3321.82,2084.5 3326.15,2084.67 3330.5,2084.5C 3330.66,2087.52 3330.5,2090.52 3330,2093.5C 3328.6,2094.12 3327.1,2094.45 3325.5,2094.5C 3311.5,2093.45 3297.5,2093.28 3283.5,2094C 3282.55,2090.94 3282.22,2087.78 3282.5,2084.5C 3287.54,2084.94 3292.37,2084.27 3297,2082.5C 3297.67,2057.83 3297.67,2033.17 3297,2008.5C 3295.21,1990.19 3285.37,1983.03 3267.5,1987C 3257.91,1991.67 3251.75,1999.17 3249,2009.5C 3248.33,2033.17 3248.33,2056.83 3249,2080.5C 3249.47,2081.93 3250.3,2083.1 3251.5,2084C 3255.82,2084.5 3260.15,2084.67 3264.5,2084.5C 3264.78,2087.78 3264.45,2090.94 3263.5,2094C 3247.59,2093.55 3231.76,2093.38 3216,2093.5C 3215.22,2090.57 3215.39,2087.74 3216.5,2085C 3220.5,2084.67 3224.5,2084.33 3228.5,2084C 3229.13,2083.25 3229.63,2082.42 3230,2081.5C 3230.67,2055.83 3230.67,2030.17 3230,2004.5C 3226.95,1999.78 3222.95,1996.12 3218,1993.5C 3217.1,1990.97 3217.6,1988.81 3219.5,1987C 3227.49,1982.09 3235.65,1977.59 3244,1973.5C 3245.11,1973.59 3246.11,1973.92 3247,1974.5C 3247.14,1980.58 3247.8,1986.58 3249,1992.5C 3256.03,1983.28 3264.86,1976.62 3275.5,1972.5 Z"/></g>
<g><path style="opacity:1" fill="#1070ac" d="M 3437.5,1972.5 C 3439.17,1972.5 3440.83,1972.5 3442.5,1972.5C 3442.33,2008.5 3442.5,2044.5 3443,2080.5C 3443.31,2081.77 3443.81,2082.93 3444.5,2084C 3449.49,2084.5 3454.49,2084.67 3459.5,2084.5C 3459.5,2087.83 3459.5,2091.17 3459.5,2094.5C 3441.83,2093.26 3424.16,2093.26 3406.5,2094.5C 3406.5,2091.17 3406.5,2087.83 3406.5,2084.5C 3411.84,2084.67 3417.18,2084.5 3422.5,2084C 3423.13,2083.25 3423.63,2082.42 3424,2081.5C 3424.67,2055.5 3424.67,2029.5 3424,2003.5C 3423.21,2001.41 3422.04,1999.58 3420.5,1998C 3417.01,1996.21 3413.34,1994.88 3409.5,1994C 3408.42,1992.27 3408.26,1990.44 3409,1988.5C 3419.26,1984.29 3428.76,1978.96 3437.5,1972.5 Z"/></g>
<g><path style="opacity:1" fill="#0e70ac" d="M 3516.5,1971.5 C 3529.59,1970.78 3538.42,1976.45 3543,1988.5C 3543.05,2017.2 3543.72,2045.87 3545,2074.5C 3546.5,2080.06 3550,2081.89 3555.5,2080C 3557.37,2078.46 3559.2,2076.96 3561,2075.5C 3563.53,2076.2 3564.69,2077.86 3564.5,2080.5C 3561.4,2092.38 3553.73,2097.88 3541.5,2097C 3538.93,2096.1 3536.6,2094.77 3534.5,2093C 3531.49,2088.82 3529.16,2084.32 3527.5,2079.5C 3516.59,2091.96 3502.93,2097.79 3486.5,2097C 3480.74,2094.34 3477.24,2089.84 3476,2083.5C 3472.16,2067 3477,2053.83 3490.5,2044C 3502.5,2037.67 3514.16,2030.84 3525.5,2023.5C 3526.76,2013.48 3526.59,2003.48 3525,1993.5C 3519.55,1983.68 3511.39,1980.51 3500.5,1984C 3497.75,1985.12 3495.25,1986.62 3493,1988.5C 3491.74,1995.73 3491.07,2003.06 3491,2010.5C 3486.88,2017.62 3481.21,2019.28 3474,2015.5C 3472.16,2002.67 3476.33,1992.17 3486.5,1984C 3495.33,1976.75 3505.33,1972.58 3516.5,1971.5 Z"/></g>
<g><path style="opacity:1" fill="#0c70ac" d="M 3728.5,1972.5 C 3735.51,1972.33 3742.51,1972.5 3749.5,1973C 3756,1975.5 3760.5,1980 3763,1986.5C 3764.3,2014.78 3764.97,2043.12 3765,2071.5C 3767.88,2082.05 3773.38,2083.38 3781.5,2075.5C 3783.6,2076.59 3784.93,2078.26 3785.5,2080.5C 3780.81,2094.67 3771.48,2099.51 3757.5,2095C 3752.84,2090.36 3749.67,2084.86 3748,2078.5C 3737.78,2091.8 3724.28,2097.96 3707.5,2097C 3700.31,2093.47 3696.48,2087.64 3696,2079.5C 3693.76,2063.82 3699.26,2051.65 3712.5,2043C 3724.19,2037.3 3735.35,2030.8 3746,2023.5C 3746.87,2012.78 3746.54,2002.12 3745,1991.5C 3739.09,1983.2 3731.26,1980.7 3721.5,1984C 3717.73,1985.3 3714.56,1987.47 3712,1990.5C 3712.15,1995.82 3712.15,2001.16 3712,2006.5C 3710.87,2015.82 3705.71,2019.32 3696.5,2017C 3695.3,2016.1 3694.47,2014.93 3694,2013.5C 3692.74,2005.29 3694.74,1997.96 3700,1991.5C 3708,1982.76 3717.5,1976.43 3728.5,1972.5 Z"/></g>
<g><path style="opacity:1" fill="#0b70ac" d="M 3827.5,1972.5 C 3844.28,1969.92 3857.78,1975.25 3868,1988.5C 3873.07,1983.78 3878.9,1980.28 3885.5,1978C 3898.58,1976.08 3903.75,1981.58 3901,1994.5C 3900.17,1996.67 3898.67,1998.17 3896.5,1999C 3893.5,1999.67 3890.5,1999.67 3887.5,1999C 3883.09,1993.29 3877.76,1992.12 3871.5,1995.5C 3872.79,1997.67 3873.63,2000 3874,2002.5C 3875.37,2014.73 3874.37,2026.73 3871,2038.5C 3865.99,2049.76 3857.49,2056.93 3845.5,2060C 3842.24,2060.94 3838.9,2061.44 3835.5,2061.5C 3825.9,2058.58 3818.73,2061.58 3814,2070.5C 3811.78,2077.44 3813.95,2082.27 3820.5,2085C 3832.83,2085.03 3845.17,2085.03 3857.5,2085C 3883.65,2088.48 3895.82,2103.31 3894,2129.5C 3890.58,2148.79 3879.41,2161.29 3860.5,2167C 3842.73,2171.87 3825.06,2171.53 3807.5,2166C 3788.7,2156.89 3783.54,2142.72 3792,2123.5C 3797.58,2115.29 3804.75,2108.79 3813.5,2104C 3796.88,2096.81 3793.05,2085.31 3802,2069.5C 3806.44,2064.23 3811.6,2059.89 3817.5,2056.5C 3800.98,2043.13 3794.15,2025.79 3797,2004.5C 3801.62,1988.38 3811.79,1977.71 3827.5,1972.5 Z"/></g>
<g><path style="opacity:1" fill="#0c70ac" d="M 4025.5,1972.5 C 4033.25,1972.1 4040.92,1972.6 4048.5,1974C 4053.67,1976.5 4057.5,1980.33 4060,1985.5C 4061.3,2013.78 4061.97,2042.12 4062,2070.5C 4064.21,2081.95 4069.71,2083.62 4078.5,2075.5C 4080.6,2076.59 4081.93,2078.26 4082.5,2080.5C 4078.62,2093.91 4069.95,2099.08 4056.5,2096C 4050.29,2091.76 4046.46,2085.92 4045,2078.5C 4034.8,2091.79 4021.3,2097.96 4004.5,2097C 4000,2095.17 3996.83,2092 3995,2087.5C 3989.09,2071.24 3992.59,2057.41 4005.5,2046C 4018.25,2038.88 4030.75,2031.38 4043,2023.5C 4043.9,2012.77 4043.57,2002.11 4042,1991.5C 4039.54,1986.85 4035.71,1984.02 4030.5,1983C 4022.58,1981.75 4015.75,1983.92 4010,1989.5C 4009.04,1991.2 4008.54,1993.03 4008.5,1995C 4010.13,2001.36 4009.63,2007.52 4007,2013.5C 4003.26,2017.26 3998.76,2018.43 3993.5,2017C 3992.3,2016.1 3991.47,2014.93 3991,2013.5C 3989.74,2005.29 3991.74,1997.96 3997,1991.5C 4005,1982.76 4014.5,1976.43 4025.5,1972.5 Z"/></g>
<g><path style="opacity:1" fill="#076fac" d="M 4200.5,1972.5 C 4201.83,1972.5 4203.17,1972.5 4204.5,1972.5C 4204.33,2008.5 4204.5,2044.5 4205,2080.5C 4205.5,2081.5 4206,2082.5 4206.5,2083.5C 4211.47,2084.33 4216.47,2084.83 4221.5,2085C 4222.61,2087.74 4222.78,2090.57 4222,2093.5C 4204.24,2093.18 4186.4,2093.52 4168.5,2094.5C 4168.5,2091.17 4168.5,2087.83 4168.5,2084.5C 4173.84,2084.67 4179.18,2084.5 4184.5,2084C 4185,2083.5 4185.5,2083 4186,2082.5C 4186.67,2055.83 4186.67,2029.17 4186,2002.5C 4182.75,1997.13 4177.92,1994.46 4171.5,1994.5C 4171.24,1992.21 4171.58,1990.04 4172.5,1988C 4182.38,1983.57 4191.71,1978.4 4200.5,1972.5 Z"/></g>
<g><path style="opacity:1" fill="#0c70ac" d="M 4270.5,1972.5 C 4277.17,1972.33 4283.84,1972.5 4290.5,1973C 4297.57,1975.07 4302.41,1979.57 4305,1986.5C 4306.3,2014.78 4306.97,2043.12 4307,2071.5C 4307.01,2078.85 4310.51,2081.69 4317.5,2080C 4319.64,2078.69 4321.64,2077.19 4323.5,2075.5C 4325.6,2076.59 4326.93,2078.26 4327.5,2080.5C 4322.79,2094.69 4313.46,2099.52 4299.5,2095C 4294.66,2090.49 4291.49,2084.99 4290,2078.5C 4279.22,2091.64 4265.39,2097.81 4248.5,2097C 4242.23,2093.72 4238.73,2088.56 4238,2081.5C 4235.14,2065.05 4240.64,2052.22 4254.5,2043C 4265.91,2036.88 4277.08,2030.38 4288,2023.5C 4288.87,2013.12 4288.54,2002.78 4287,1992.5C 4283.82,1985.9 4278.49,1982.57 4271,1982.5C 4264.3,1983.02 4258.63,1985.68 4254,1990.5C 4254.15,1995.82 4254.15,2001.16 4254,2006.5C 4252.23,2016.32 4246.57,2019.65 4237,2016.5C 4234.15,2007.79 4235.49,1999.79 4241,1992.5C 4248.83,1982.84 4258.66,1976.17 4270.5,1972.5 Z"/></g>
<g><path style="opacity:1" fill="#fcfdfd" d="M 3832.5,1980.5 C 3845.36,1979.18 3853.19,1984.85 3856,1997.5C 3858.49,2012.97 3856.82,2027.97 3851,2042.5C 3844.84,2052.74 3836.34,2055.24 3825.5,2050C 3817.2,2041.78 3813.2,2031.78 3813.5,2020C 3812.51,2005.95 3816.85,1993.95 3826.5,1984C 3828.73,1983.06 3830.73,1981.89 3832.5,1980.5 Z"/></g>
<g><path style="opacity:1" fill="#fbfcfd" d="M 1281.5,2009.5 C 1268.32,2009.83 1255.32,2009.5 1242.5,2008.5C 1244.19,1995.58 1250.86,1986.41 1262.5,1981C 1270.24,1979.58 1276.41,1982.08 1281,1988.5C 1284.63,1994.38 1285.96,2000.71 1285,2007.5C 1284.18,2008.82 1283.02,2009.49 1281.5,2009.5 Z"/></g>
<g><path style="opacity:1" fill="#fbfcfd" d="M 2447.5,2009.5 C 2434.66,2009.83 2421.99,2009.5 2409.5,2008.5C 2411.19,1995.58 2417.86,1986.42 2429.5,1981C 2441.84,1980.32 2449.34,1986.16 2452,1998.5C 2452.67,2001.5 2452.67,2004.5 2452,2007.5C 2450.89,2009.04 2449.39,2009.7 2447.5,2009.5 Z"/></g>
<g><path style="opacity:1" fill="#fbfcfd" d="M 2695.5,1980.5 C 2707.06,1979.88 2714.22,1985.22 2717,1996.5C 2717.83,2000.54 2717.66,2004.54 2716.5,2008.5C 2702.53,2009.82 2688.53,2009.82 2674.5,2008.5C 2677.1,1995.6 2684.1,1986.27 2695.5,1980.5 Z"/></g>
<g><path style="opacity:1" fill="#fdfdfe" d="M 2899.5,1980.5 C 2909.92,1981.13 2918.09,1985.8 2924,1994.5C 2935.56,2012.73 2938.56,2032.39 2933,2053.5C 2931.07,2066.88 2924.9,2077.71 2914.5,2086C 2902.19,2090.88 2892.02,2088.05 2884,2077.5C 2877.53,2067.44 2873.87,2056.44 2873,2044.5C 2869.25,2023.26 2873.92,2004.26 2887,1987.5C 2890.74,1984.22 2894.91,1981.89 2899.5,1980.5 Z"/></g>
<g><path style="opacity:1" fill="#fdfdfe" d="M 3143.5,1980.5 C 3154.33,1980.83 3162.83,1985.5 3169,1994.5C 3179.66,2011.42 3182.99,2029.76 3179,2049.5C 3177.13,2058.57 3174.13,2067.23 3170,2075.5C 3157.12,2092 3143.45,2092.67 3129,2077.5C 3122.5,2067.82 3118.83,2057.16 3118,2045.5C 3116.7,2031.96 3117.7,2018.63 3121,2005.5C 3125.3,1994.05 3132.8,1985.72 3143.5,1980.5 Z"/></g>
<g><path style="opacity:1" fill="#fdfefe" d="M 2307.5,1982.5 C 2316.67,1981.44 2325.33,1982.94 2333.5,1987C 2337.88,1991.04 2341.04,1995.88 2343,2001.5C 2343.67,2022.83 2343.67,2044.17 2343,2065.5C 2339.89,2076.27 2332.73,2082.43 2321.5,2084C 2312.48,2085.24 2304.98,2082.41 2299,2075.5C 2283.78,2054.16 2279.78,2030.83 2287,2005.5C 2290.56,1994.78 2297.4,1987.11 2307.5,1982.5 Z"/></g>
<g><path style="opacity:1" fill="#3f91c0" d="M 1242.5,2008.5 C 1255.32,2009.5 1268.32,2009.83 1281.5,2009.5C 1268.33,2010.83 1254.99,2010.83 1241.5,2009.5C 1241.62,2008.89 1241.96,2008.56 1242.5,2008.5 Z"/></g>
<g><path style="opacity:1" fill="#3f91c0" d="M 2409.5,2008.5 C 2421.99,2009.5 2434.66,2009.83 2447.5,2009.5C 2434.66,2010.83 2421.66,2010.83 2408.5,2009.5C 2408.62,2008.89 2408.96,2008.56 2409.5,2008.5 Z"/></g>
<g><path style="opacity:1" fill="#fcfdfd" d="M 3744.5,2032.5 C 3745.83,2038.13 3746.5,2044.13 3746.5,2050.5C 3750.52,2066.69 3744.86,2077.53 3729.5,2083C 3721.35,2084.2 3716.52,2080.7 3715,2072.5C 3713.41,2061.93 3716.58,2053.1 3724.5,2046C 3731.41,2041.72 3738.07,2037.22 3744.5,2032.5 Z"/></g>
<g><path style="opacity:1" fill="#fbfdfd" d="M 4042.5,2032.5 C 4043.49,2043.65 4043.83,2054.99 4043.5,2066.5C 4040.39,2076.49 4033.56,2082.16 4023,2083.5C 4017.17,2082.68 4013.5,2079.34 4012,2073.5C 4010.34,2063.47 4013.01,2054.81 4020,2047.5C 4027.13,2041.85 4034.63,2036.85 4042.5,2032.5 Z"/></g>
<g><path style="opacity:1" fill="#fcfdfd" d="M 1599.5,2032.5 C 1600.66,2044.99 1600.83,2057.66 1600,2070.5C 1594.81,2079.06 1587.31,2083.22 1577.5,2083C 1571.23,2079.87 1568.56,2074.7 1569.5,2067.5C 1569.64,2057.71 1573.64,2049.88 1581.5,2044C 1587.73,2040.39 1593.73,2036.56 1599.5,2032.5 Z"/></g>
<g><path style="opacity:1" fill="#fcfdfd" d="M 1827.5,2032.5 C 1828.66,2044.66 1828.83,2056.99 1828,2069.5C 1823.05,2079.06 1815.22,2083.56 1804.5,2083C 1801.27,2081.44 1799.1,2078.94 1798,2075.5C 1795.21,2062.57 1799.05,2052.07 1809.5,2044C 1815.41,2039.91 1821.41,2036.08 1827.5,2032.5 Z"/></g>
<g><path style="opacity:1" fill="#fcfdfd" d="M 3524.5,2032.5 C 3525.66,2044.66 3525.83,2056.99 3525,2069.5C 3519.99,2079.08 3512.16,2083.58 3501.5,2083C 3497.83,2081.33 3495.67,2078.5 3495,2074.5C 3492.52,2061.96 3496.35,2051.8 3506.5,2044C 3512.41,2039.91 3518.41,2036.08 3524.5,2032.5 Z"/></g>
<g><path style="opacity:1" fill="#fcfdfd" d="M 4286.5,2033.5 C 4287.49,2044.99 4287.83,2056.65 4287.5,2068.5C 4283.77,2077.06 4277.27,2082.06 4268,2083.5C 4259.9,2081.89 4256.07,2076.89 4256.5,2068.5C 4256.11,2061.24 4258.28,2054.91 4263,2049.5C 4269.89,2042.77 4277.73,2037.44 4286.5,2033.5 Z"/></g>
<g><path style="opacity:1" fill="#4091c0" d="M 4042.5,2032.5 C 4042.56,2031.96 4042.89,2031.62 4043.5,2031.5C 4044.82,2043.33 4044.82,2054.99 4043.5,2066.5C 4043.83,2054.99 4043.49,2043.65 4042.5,2032.5 Z"/></g>
<g><path style="opacity:1" fill="#bddae9" d="M 4286.5,2033.5 C 4286.56,2032.96 4286.89,2032.62 4287.5,2032.5C 4288.82,2044.66 4288.82,2056.66 4287.5,2068.5C 4287.83,2056.65 4287.49,2044.99 4286.5,2033.5 Z"/></g>
<g><path style="opacity:1" fill="#fdfdfe" d="M 3832.5,2105.5 C 3841.17,2105.33 3849.84,2105.5 3858.5,2106C 3875.34,2110.82 3882.17,2121.98 3879,2139.5C 3875.03,2149.47 3867.86,2155.97 3857.5,2159C 3845.52,2162.26 3833.52,2162.26 3821.5,2159C 3804.57,2150.86 3799.4,2138.03 3806,2120.5C 3812.1,2110.37 3820.94,2105.37 3832.5,2105.5 Z"/></g>
<g><path style="opacity:1" fill="#98b876" d="M 527.5,2157.5 C 544.534,2167.01 561.201,2177.01 577.5,2187.5C 567.672,2197.16 557.672,2206.66 547.5,2216C 500.215,2254.99 450.548,2290.33 398.5,2322C 452.913,2275.95 495.913,2221.12 527.5,2157.5 Z"/></g>
</svg>
